<svg viewBox="0 0 330 200" xmlns="http://www.w3.org/2000/svg"><g><g><g><g><g><line x1="30" y1="178" x2="25" y2="178" style="visibility: inherit;" fill="rgb(0, 0, 0)" stroke="rgb(204, 204, 204)" stroke-width="1px"></line><line x1="30" y1="166.13333333333333" x2="25" y2="166.13333333333333" style="visibility: inherit;" fill="rgb(0, 0, 0)" stroke="rgb(204, 204, 204)" stroke-width="1px"></line><line x1="30" y1="154.26666666666668" x2="25" y2="154.26666666666668" style="visibility: inherit;" fill="rgb(0, 0, 0)" stroke="rgb(204, 204, 204)" stroke-width="1px"></line><line x1="30" y1="142.4" x2="25" y2="142.4" style="visibility: inherit;" fill="rgb(0, 0, 0)" stroke="rgb(204, 204, 204)" stroke-width="1px"></line><line x1="30" y1="130.53333333333333" x2="25" y2="130.53333333333333" style="visibility: inherit;" fill="rgb(0, 0, 0)" stroke="rgb(204, 204, 204)" stroke-width="1px"></line><line x1="30" y1="118.66666666666669" x2="25" y2="118.66666666666669" style="visibility: inherit;" fill="rgb(0, 0, 0)" stroke="rgb(204, 204, 204)" stroke-width="1px"></line><line x1="30" y1="106.8" x2="25" y2="106.8" style="visibility: inherit;" fill="rgb(0, 0, 0)" stroke="rgb(204, 204, 204)" stroke-width="1px"></line><line x1="30" y1="94.93333333333334" x2="25" y2="94.93333333333334" style="visibility: inherit;" fill="rgb(0, 0, 0)" stroke="rgb(204, 204, 204)" stroke-width="1px"></line><line x1="30" y1="83.06666666666666" x2="25" y2="83.06666666666666" style="visibility: inherit;" fill="rgb(0, 0, 0)" stroke="rgb(204, 204, 204)" stroke-width="1px"></line><line x1="30" y1="71.2" x2="25" y2="71.2" style="visibility: inherit;" fill="rgb(0, 0, 0)" stroke="rgb(204, 204, 204)" stroke-width="1px"></line><line x1="30" y1="59.33333333333334" x2="25" y2="59.33333333333334" style="visibility: inherit;" fill="rgb(0, 0, 0)" stroke="rgb(204, 204, 204)" stroke-width="1px"></line><line x1="30" y1="47.466666666666676" x2="25" y2="47.466666666666676" style="visibility: inherit;" fill="rgb(0, 0, 0)" stroke="rgb(204, 204, 204)" stroke-width="1px"></line><line x1="30" y1="35.599999999999994" x2="25" y2="35.599999999999994" style="visibility: inherit;" fill="rgb(0, 0, 0)" stroke="rgb(204, 204, 204)" stroke-width="1px"></line><line x1="30" y1="23.733333333333327" x2="25" y2="23.733333333333327" style="visibility: inherit;" fill="rgb(0, 0, 0)" stroke="rgb(204, 204, 204)" stroke-width="1px"></line><line x1="30" y1="11.866666666666664" x2="25" y2="11.866666666666664" style="visibility: inherit;" fill="rgb(0, 0, 0)" stroke="rgb(204, 204, 204)" stroke-width="1px"></line><line x1="30" y1="0" x2="25" y2="0" style="visibility: inherit;" fill="rgb(0, 0, 0)" stroke="rgb(204, 204, 204)" stroke-width="1px"></line></g><g transform="translate(20, 0)"><text x="0" y="178" dx="0em" dy="0.3em" style="text-anchor: end; visibility: hidden; font-family: Roboto, sans-serif; font-size: 12px; font-weight: 200;" fill="rgb(50, 49, 63)" stroke="none" stroke-width="1px">-4</text><text x="0" y="166.13333333333333" dx="0em" dy="0.3em" style="text-anchor: end; visibility: inherit; font-family: Roboto, sans-serif; font-size: 12px; font-weight: 200;" fill="rgb(50, 49, 63)" stroke="none" stroke-width="1px">-2</text><text x="0" y="154.26666666666668" dx="0em" dy="0.3em" style="text-anchor: end; visibility: hidden; font-family: Roboto, sans-serif; font-size: 12px; font-weight: 200;" fill="rgb(50, 49, 63)" stroke="none" stroke-width="1px">0</text><text x="0" y="142.4" dx="0em" dy="0.3em" style="text-anchor: end; visibility: inherit; font-family: Roboto, sans-serif; font-size: 12px; font-weight: 200;" fill="rgb(50, 49, 63)" stroke="none" stroke-width="1px">2</text><text x="0" y="130.53333333333333" dx="0em" dy="0.3em" style="text-anchor: end; visibility: hidden; font-family: Roboto, sans-serif; font-size: 12px; font-weight: 200;" fill="rgb(50, 49, 63)" stroke="none" stroke-width="1px">4</text><text x="0" y="118.66666666666669" dx="0em" dy="0.3em" style="text-anchor: end; visibility: inherit; font-family: Roboto, sans-serif; font-size: 12px; font-weight: 200;" fill="rgb(50, 49, 63)" stroke="none" stroke-width="1px">6</text><text x="0" y="106.8" dx="0em" dy="0.3em" style="text-anchor: end; visibility: hidden; font-family: Roboto, sans-serif; font-size: 12px; font-weight: 200;" fill="rgb(50, 49, 63)" stroke="none" stroke-width="1px">8</text><text x="0" y="94.93333333333334" dx="0em" dy="0.3em" style="text-anchor: end; visibility: inherit; font-family: Roboto, sans-serif; font-size: 12px; font-weight: 200;" fill="rgb(50, 49, 63)" stroke="none" stroke-width="1px">10</text><text x="0" y="83.06666666666666" dx="0em" dy="0.3em" style="text-anchor: end; visibility: hidden; font-family: Roboto, sans-serif; font-size: 12px; font-weight: 200;" fill="rgb(50, 49, 63)" stroke="none" stroke-width="1px">12</text><text x="0" y="71.2" dx="0em" dy="0.3em" style="text-anchor: end; visibility: inherit; font-family: Roboto, sans-serif; font-size: 12px; font-weight: 200;" fill="rgb(50, 49, 63)" stroke="none" stroke-width="1px">14</text><text x="0" y="59.33333333333334" dx="0em" dy="0.3em" style="text-anchor: end; visibility: hidden; font-family: Roboto, sans-serif; font-size: 12px; font-weight: 200;" fill="rgb(50, 49, 63)" stroke="none" stroke-width="1px">16</text><text x="0" y="47.466666666666676" dx="0em" dy="0.3em" style="text-anchor: end; visibility: inherit; font-family: Roboto, sans-serif; font-size: 12px; font-weight: 200;" fill="rgb(50, 49, 63)" stroke="none" stroke-width="1px">18</text><text x="0" y="35.599999999999994" dx="0em" dy="0.3em" style="text-anchor: end; visibility: hidden; font-family: Roboto, sans-serif; font-size: 12px; font-weight: 200;" fill="rgb(50, 49, 63)" stroke="none" stroke-width="1px">20</text><text x="0" y="23.733333333333327" dx="0em" dy="0.3em" style="text-anchor: end; visibility: inherit; font-family: Roboto, sans-serif; font-size: 12px; font-weight: 200;" fill="rgb(50, 49, 63)" stroke="none" stroke-width="1px">22</text><text x="0" y="11.866666666666664" dx="0em" dy="0.3em" style="text-anchor: end; visibility: hidden; font-family: Roboto, sans-serif; font-size: 12px; font-weight: 200;" fill="rgb(50, 49, 63)" stroke="none" stroke-width="1px">24</text><text x="0" y="0" dx="0em" dy="0.3em" style="text-anchor: end; visibility: hidden; font-family: Roboto, sans-serif; font-size: 12px; font-weight: 200;" fill="rgb(50, 49, 63)" stroke="none" stroke-width="1px">26</text></g><line x1="30" y1="0" x2="30" y2="178" fill="rgb(0, 0, 0)" stroke="rgb(204, 204, 204)" stroke-width="1px"></line></g></g><g transform="translate(30, 0)" clip-path="url(#clip_0)"><clipPath id="clip_0"><rect width="300" height="178"></rect></clipPath><g><g><g><line x1="0" y1="0" x2="0" y2="178" fill="rgb(0, 0, 0)" stroke="rgb(60, 60, 60)" stroke-width="1px" opacity="0.25"></line><line x1="25" y1="0" x2="25" y2="178" fill="rgb(0, 0, 0)" stroke="rgb(60, 60, 60)" stroke-width="1px" opacity="0.25"></line><line x1="50" y1="0" x2="50" y2="178" fill="rgb(0, 0, 0)" stroke="rgb(60, 60, 60)" stroke-width="1px" opacity="0.25"></line><line x1="75" y1="0" x2="75" y2="178" fill="rgb(0, 0, 0)" stroke="rgb(60, 60, 60)" stroke-width="1px" opacity="0.25"></line><line x1="100" y1="0" x2="100" y2="178" fill="rgb(0, 0, 0)" stroke="rgb(60, 60, 60)" stroke-width="1px" opacity="0.25"></line><line x1="125" y1="0" x2="125" y2="178" fill="rgb(0, 0, 0)" stroke="rgb(60, 60, 60)" stroke-width="1px" opacity="0.25"></line><line x1="150" y1="0" x2="150" y2="178" fill="rgb(0, 0, 0)" stroke="rgb(60, 60, 60)" stroke-width="1px" opacity="0.25"></line><line x1="175" y1="0" x2="175" y2="178" fill="rgb(0, 0, 0)" stroke="rgb(60, 60, 60)" stroke-width="1px" opacity="0.25"></line><line x1="200" y1="0" x2="200" y2="178" fill="rgb(0, 0, 0)" stroke="rgb(60, 60, 60)" stroke-width="1px" opacity="0.25"></line><line x1="225" y1="0" x2="225" y2="178" fill="rgb(0, 0, 0)" stroke="rgb(60, 60, 60)" stroke-width="1px" opacity="0.25"></line><line x1="250" y1="0" x2="250" y2="178" fill="rgb(0, 0, 0)" stroke="rgb(60, 60, 60)" stroke-width="1px" opacity="0.25"></line><line x1="275" y1="0" x2="275" y2="178" fill="rgb(0, 0, 0)" stroke="rgb(60, 60, 60)" stroke-width="1px" opacity="0.25"></line><line x1="300" y1="0" x2="300" y2="178" fill="rgb(0, 0, 0)" stroke="rgb(60, 60, 60)" stroke-width="1px" opacity="0.25"></line></g><g><line x1="0" y1="178" x2="300" y2="178" fill="rgb(0, 0, 0)" stroke="rgb(60, 60, 60)" stroke-width="1px" opacity="0.25"></line><line x1="0" y1="166.13333333333333" x2="300" y2="166.13333333333333" fill="rgb(0, 0, 0)" stroke="rgb(60, 60, 60)" stroke-width="1px" opacity="0.25"></line><line x1="0" y1="154.26666666666668" x2="300" y2="154.26666666666668" fill="rgb(0, 0, 0)" stroke="rgb(60, 60, 60)" stroke-width="1px" opacity="0.25"></line><line x1="0" y1="142.4" x2="300" y2="142.4" fill="rgb(0, 0, 0)" stroke="rgb(60, 60, 60)" stroke-width="1px" opacity="0.25"></line><line x1="0" y1="130.53333333333333" x2="300" y2="130.53333333333333" fill="rgb(0, 0, 0)" stroke="rgb(60, 60, 60)" stroke-width="1px" opacity="0.25"></line><line x1="0" y1="118.66666666666669" x2="300" y2="118.66666666666669" fill="rgb(0, 0, 0)" stroke="rgb(60, 60, 60)" stroke-width="1px" opacity="0.25"></line><line x1="0" y1="106.8" x2="300" y2="106.8" fill="rgb(0, 0, 0)" stroke="rgb(60, 60, 60)" stroke-width="1px" opacity="0.25"></line><line x1="0" y1="94.93333333333334" x2="300" y2="94.93333333333334" fill="rgb(0, 0, 0)" stroke="rgb(60, 60, 60)" stroke-width="1px" opacity="0.25"></line><line x1="0" y1="83.06666666666666" x2="300" y2="83.06666666666666" fill="rgb(0, 0, 0)" stroke="rgb(60, 60, 60)" stroke-width="1px" opacity="0.25"></line><line x1="0" y1="71.2" x2="300" y2="71.2" fill="rgb(0, 0, 0)" stroke="rgb(60, 60, 60)" stroke-width="1px" opacity="0.25"></line><line x1="0" y1="59.33333333333334" x2="300" y2="59.33333333333334" fill="rgb(0, 0, 0)" stroke="rgb(60, 60, 60)" stroke-width="1px" opacity="0.25"></line><line x1="0" y1="47.466666666666676" x2="300" y2="47.466666666666676" fill="rgb(0, 0, 0)" stroke="rgb(60, 60, 60)" stroke-width="1px" opacity="0.25"></line><line x1="0" y1="35.599999999999994" x2="300" y2="35.599999999999994" fill="rgb(0, 0, 0)" stroke="rgb(60, 60, 60)" stroke-width="1px" opacity="0.25"></line><line x1="0" y1="23.733333333333327" x2="300" y2="23.733333333333327" fill="rgb(0, 0, 0)" stroke="rgb(60, 60, 60)" stroke-width="1px" opacity="0.25"></line><line x1="0" y1="11.866666666666664" x2="300" y2="11.866666666666664" fill="rgb(0, 0, 0)" stroke="rgb(60, 60, 60)" stroke-width="1px" opacity="0.25"></line><line x1="0" y1="0" x2="300" y2="0" fill="rgb(0, 0, 0)" stroke="rgb(60, 60, 60)" stroke-width="1px" opacity="0.25"></line></g></g></g><g><g><line x1="0" y1="154.26666666666668" x2="300" y2="154.26666666666668" fill="rgb(0, 0, 0)" stroke="rgb(153, 153, 153)" stroke-width="1.5px"></line></g></g><g><g><line x1="25" y1="0" x2="25" y2="178" fill="rgb(0, 0, 0)" stroke="rgb(153, 153, 153)" stroke-width="1.5px"></line></g></g><g><g><g><g><g><path stroke="rgb(0, 119, 187)" stroke-width="2px" d="M25,130.90844163894653L30,131.87756224256572L35,132.0315753269482L40,131.57108249838845L45,130.64309425785163L50,129.34978807861546L54.99999999999999,127.79267359271711L60,125.9840095916276L65,123.36237225666625L70,119.08730477780564L75,112.29555993976405L80,100.62850342362171L85,92.57216417369071L90,87.40923292356408L95,40.38567480297649L100,20.525509885998332L105,23.214386926099824L109.99999999999999,62.932773150007435L115.00000000000001,-111.19743755926686L120,66.15215582979718L125,39.05368260873654L130,-3.6388708214627923L135,101.37192417044773L140,76.59786534871591L145,88.31317108687354L150,104.31298764091392L155.00000000000003,54.84985078130331L160,40.9255215390068L165,106.75396507008415L170,114.78842025540622L175,47.105157295010834L180,20.15453012616856L185,94.99193603339931L190,96.69409037763192L195,100.77096730344924L200,110.33376898872199L205,49.07528520117932L210,-34.52011247109297L215,-119.51514227433098L219.99999999999997,87.12683760400306L225,91.14983006166985L230.00000000000003,44.62580782000974L235,66.51178108793971L240,11.338232819182153L245,73.45623521963182L250,96.96692496315582L255,111.09987157918606L260,97.943251833059L265,107.48448968258872L270,103.34843452962973" style="fill: none;" fill="none"></path></g><g><path stroke="rgb(255, 112, 67)" stroke-width="2px" d="M25,129.70384724934894L30,131.75888823017928L35,133.45989739501084L40,134.96941807918853L45,136.38992690400593L50,137.66544857674683L54.99999999999999,138.73717020803377L60,139.5985543278105L65,140.1423092754879L70,139.94177363306463L75,137.88343167580115L80,134.25378264931172L85,128.45765334084308L90,121.09741945357581L95,116.97555945405509L100,88.79397909451438L105,72.61822796087355L109.99999999999999,71.25588991187105L115.00000000000001,89.08229234888364L120,96.8358675748847L125,102.53142508298896L130,110.0110205638714L135,103.06395361888714L140,126.75687113093166L145,122.01575143842581L150,108.01022249033915L155.00000000000003,96.06774073200509L160,126.50846878107099L165,114.89849708181193L170,123.18483612785893L175,124.64379135395106L180,116.4003833830605L185,108.48774075567972L190,115.53068686014439L195,114.04308180857302L200,110.74807467942296L205,112.16482601690774L210,127.82946390204478L215,102.13809728055482L219.99999999999997,107.57491453114082L225,120.40168964189581L230.00000000000003,102.70216784648328L235,104.4760177375597L240,70.3775639319591L245,109.6338207986372L250,88.70330879952924L255,101.37114783551934L260,108.55593911292816L265,107.60650088417795L270,109.9143141432884" style="fill: none;" fill="none"></path></g></g></g></g><g opacity="0.2"><g><g><g><path stroke="rgb(0, 119, 187)" stroke-width="2px" d="M25,130.90844163894653L30,131.97447430292766L35,132.04851676623028L40,131.51996779441833L45,130.539994764328L50,129.2060888290405L54.99999999999999,127.61966104507447L60,125.78304694493612L65,123.07107922236123L70,118.61229728062948L75,111.54092162450155L80,99.33216381072998L85,91.67701536814371L90,86.8355738957723L95,35.160835011800124L100,18.318824895222985L105,23.513151041666664L109.99999999999999,67.34592717488607L115.00000000000001,-130.5452387491862L120,85.85766620635987L125,36.04274113972983L130,-8.382487869262688L135,113.03979028066L140,73.84519214630127L145,89.61487172444662L150,106.09074503580729L155.00000000000003,49.353946685791016L160,39.37837384541829L165,114.06823657353719L170,115.68113749821981L175,39.58479474385579L180,17.1600159962972L185,103.30720335642496L190,96.8832186381022L195,101.22395362854004L200,111.39630250930786L205,42.26878700256347L210,-43.80848999023436L215,-128.95903447469075L219.99999999999997,110.08705759048462L225,91.59682922363281L230.00000000000003,39.456472015380854L235,68.94355589548746L240,5.207838567097973L245,80.35823548634848L250,99.57922382354737L255,112.6701989809672L260,96.48140519460043L265,108.54462722142539L270,102.88887284596761" style="fill: none;" fill="none"></path></g><g><path stroke="rgb(255, 112, 67)" stroke-width="2px" d="M25,129.70384724934894L30,131.96439232826233L35,133.64700840314228L40,135.13697487513224L45,136.54774543444316L50,137.8071717898051L54.99999999999999,138.8562502702077L60,139.6942636648814L65,140.2027264912923L70,139.91949189503987L75,137.65472701390584L80,133.85048831303914L85,127.81363897323608L90,120.27961568832397L95,116.5175750096639L100,85.66269238789877L105,70.82092227935792L109.99999999999999,71.10451901753744L115.00000000000001,91.06300373077393L120,97.69737593332928L125,103.16426480611166L130,110.8420867284139L135,102.29205729166667L140,129.38941752115886L145,121.48896036148071L150,106.45405260721844L155.00000000000003,94.74079831441242L160,129.89077189763387L165,113.6085002263387L170,124.1055404663086L175,124.80589749018351L180,115.48444916407267L185,107.60855824152628L190,116.31323642730713L195,113.87779235839844L200,110.38196277618408L205,112.32224283218383L210,129.56997922261556L215,99.28350098927814L219.99999999999997,108.17900533676148L225,121.82688687642415L230.00000000000003,100.73555431365966L235,104.67311216990153L240,66.58884684244791L245,113.99562711715699L250,86.37769635518393L255,102.7786855061849L260,109.35424925486247L265,107.50100774765015L270,110.17073783874511" style="fill: none;" fill="none"></path></g></g></g></g></g></g><g transform="translate(30, 178)" clip-path="url(#clip_1)"><clipPath id="clip_1"><rect width="300" height="22"></rect></clipPath><g><g><line x1="0" y1="0" x2="0" y2="5" style="visibility: inherit;" fill="rgb(0, 0, 0)" stroke="rgb(204, 204, 204)" stroke-width="1px"></line><line x1="25" y1="0" x2="25" y2="5" style="visibility: inherit;" fill="rgb(0, 0, 0)" stroke="rgb(204, 204, 204)" stroke-width="1px"></line><line x1="50" y1="0" x2="50" y2="5" style="visibility: inherit;" fill="rgb(0, 0, 0)" stroke="rgb(204, 204, 204)" stroke-width="1px"></line><line x1="75" y1="0" x2="75" y2="5" style="visibility: inherit;" fill="rgb(0, 0, 0)" stroke="rgb(204, 204, 204)" stroke-width="1px"></line><line x1="100" y1="0" x2="100" y2="5" style="visibility: inherit;" fill="rgb(0, 0, 0)" stroke="rgb(204, 204, 204)" stroke-width="1px"></line><line x1="125" y1="0" x2="125" y2="5" style="visibility: inherit;" fill="rgb(0, 0, 0)" stroke="rgb(204, 204, 204)" stroke-width="1px"></line><line x1="150" y1="0" x2="150" y2="5" style="visibility: inherit;" fill="rgb(0, 0, 0)" stroke="rgb(204, 204, 204)" stroke-width="1px"></line><line x1="175" y1="0" x2="175" y2="5" style="visibility: inherit;" fill="rgb(0, 0, 0)" stroke="rgb(204, 204, 204)" stroke-width="1px"></line><line x1="200" y1="0" x2="200" y2="5" style="visibility: inherit;" fill="rgb(0, 0, 0)" stroke="rgb(204, 204, 204)" stroke-width="1px"></line><line x1="225" y1="0" x2="225" y2="5" style="visibility: inherit;" fill="rgb(0, 0, 0)" stroke="rgb(204, 204, 204)" stroke-width="1px"></line><line x1="250" y1="0" x2="250" y2="5" style="visibility: inherit;" fill="rgb(0, 0, 0)" stroke="rgb(204, 204, 204)" stroke-width="1px"></line><line x1="275" y1="0" x2="275" y2="5" style="visibility: inherit;" fill="rgb(0, 0, 0)" stroke="rgb(204, 204, 204)" stroke-width="1px"></line><line x1="300" y1="0" x2="300" y2="5" style="visibility: inherit;" fill="rgb(0, 0, 0)" stroke="rgb(204, 204, 204)" stroke-width="1px"></line></g><g transform="translate(0, 8)"><text x="0" y="0" dx="0em" dy="0.95em" style="text-anchor: middle; visibility: hidden; font-family: Roboto, sans-serif; font-size: 12px; font-weight: 200;" fill="rgb(50, 49, 63)" stroke="none" stroke-width="1px">-5</text><text x="25" y="0" dx="0em" dy="0.95em" style="text-anchor: middle; visibility: inherit; font-family: Roboto, sans-serif; font-size: 12px; font-weight: 200;" fill="rgb(50, 49, 63)" stroke="none" stroke-width="1px">0</text><text x="50" y="0" dx="0em" dy="0.95em" style="text-anchor: middle; visibility: inherit; font-family: Roboto, sans-serif; font-size: 12px; font-weight: 200;" fill="rgb(50, 49, 63)" stroke="none" stroke-width="1px">5</text><text x="75" y="0" dx="0em" dy="0.95em" style="text-anchor: middle; visibility: inherit; font-family: Roboto, sans-serif; font-size: 12px; font-weight: 200;" fill="rgb(50, 49, 63)" stroke="none" stroke-width="1px">10</text><text x="100" y="0" dx="0em" dy="0.95em" style="text-anchor: middle; visibility: inherit; font-family: Roboto, sans-serif; font-size: 12px; font-weight: 200;" fill="rgb(50, 49, 63)" stroke="none" stroke-width="1px">15</text><text x="125" y="0" dx="0em" dy="0.95em" style="text-anchor: middle; visibility: inherit; font-family: Roboto, sans-serif; font-size: 12px; font-weight: 200;" fill="rgb(50, 49, 63)" stroke="none" stroke-width="1px">20</text><text x="150" y="0" dx="0em" dy="0.95em" style="text-anchor: middle; visibility: inherit; font-family: Roboto, sans-serif; font-size: 12px; font-weight: 200;" fill="rgb(50, 49, 63)" stroke="none" stroke-width="1px">25</text><text x="175" y="0" dx="0em" dy="0.95em" style="text-anchor: middle; visibility: inherit; font-family: Roboto, sans-serif; font-size: 12px; font-weight: 200;" fill="rgb(50, 49, 63)" stroke="none" stroke-width="1px">30</text><text x="200" y="0" dx="0em" dy="0.95em" style="text-anchor: middle; visibility: inherit; font-family: Roboto, sans-serif; font-size: 12px; font-weight: 200;" fill="rgb(50, 49, 63)" stroke="none" stroke-width="1px">35</text><text x="225" y="0" dx="0em" dy="0.95em" style="text-anchor: middle; visibility: inherit; font-family: Roboto, sans-serif; font-size: 12px; font-weight: 200;" fill="rgb(50, 49, 63)" stroke="none" stroke-width="1px">40</text><text x="250" y="0" dx="0em" dy="0.95em" style="text-anchor: middle; visibility: inherit; font-family: Roboto, sans-serif; font-size: 12px; font-weight: 200;" fill="rgb(50, 49, 63)" stroke="none" stroke-width="1px">45</text><text x="275" y="0" dx="0em" dy="0.95em" style="text-anchor: middle; visibility: inherit; font-family: Roboto, sans-serif; font-size: 12px; font-weight: 200;" fill="rgb(50, 49, 63)" stroke="none" stroke-width="1px">50</text><text x="300" y="0" dx="0em" dy="0.95em" style="text-anchor: middle; visibility: hidden; font-family: Roboto, sans-serif; font-size: 12px; font-weight: 200;" fill="rgb(50, 49, 63)" stroke="none" stroke-width="1px">55</text></g><line x1="0" y1="0" x2="300" y2="0" fill="rgb(0, 0, 0)" stroke="rgb(204, 204, 204)" stroke-width="1px"></line></g></g></g></g></svg>