<svg viewBox="0 0 330 200" xmlns="http://www.w3.org/2000/svg"><g><g><g><g><g><line x1="30" y1="164.16093944670882" x2="25" y2="164.16093944670882" style="visibility: inherit;" fill="rgb(0, 0, 0)" stroke="rgb(204, 204, 204)" stroke-width="1px"></line><line x1="30" y1="148.2782086078957" x2="25" y2="148.2782086078957" style="visibility: inherit;" fill="rgb(0, 0, 0)" stroke="rgb(204, 204, 204)" stroke-width="1px"></line><line x1="30" y1="132.39547776908253" x2="25" y2="132.39547776908253" style="visibility: inherit;" fill="rgb(0, 0, 0)" stroke="rgb(204, 204, 204)" stroke-width="1px"></line><line x1="30" y1="116.51274693026939" x2="25" y2="116.51274693026939" style="visibility: inherit;" fill="rgb(0, 0, 0)" stroke="rgb(204, 204, 204)" stroke-width="1px"></line><line x1="30" y1="100.63001609145624" x2="25" y2="100.63001609145624" style="visibility: inherit;" fill="rgb(0, 0, 0)" stroke="rgb(204, 204, 204)" stroke-width="1px"></line><line x1="30" y1="84.7472852526431" x2="25" y2="84.7472852526431" style="visibility: inherit;" fill="rgb(0, 0, 0)" stroke="rgb(204, 204, 204)" stroke-width="1px"></line><line x1="30" y1="68.86455441382995" x2="25" y2="68.86455441382995" style="visibility: inherit;" fill="rgb(0, 0, 0)" stroke="rgb(204, 204, 204)" stroke-width="1px"></line><line x1="30" y1="52.98182357501679" x2="25" y2="52.98182357501679" style="visibility: inherit;" fill="rgb(0, 0, 0)" stroke="rgb(204, 204, 204)" stroke-width="1px"></line><line x1="30" y1="37.09909273620365" x2="25" y2="37.09909273620365" style="visibility: inherit;" fill="rgb(0, 0, 0)" stroke="rgb(204, 204, 204)" stroke-width="1px"></line><line x1="30" y1="21.216361897390495" x2="25" y2="21.216361897390495" style="visibility: inherit;" fill="rgb(0, 0, 0)" stroke="rgb(204, 204, 204)" stroke-width="1px"></line><line x1="30" y1="5.3336310585773585" x2="25" y2="5.3336310585773585" style="visibility: inherit;" fill="rgb(0, 0, 0)" stroke="rgb(204, 204, 204)" stroke-width="1px"></line></g><g transform="translate(20, 0)"><text x="0" y="164.16093944670882" dx="0em" dy="0.3em" style="text-anchor: end; visibility: inherit; font-family: Roboto, sans-serif; font-size: 12px; font-weight: 200;" fill="rgb(50, 49, 63)" stroke="none" stroke-width="1px">0</text><text x="0" y="148.2782086078957" dx="0em" dy="0.3em" style="text-anchor: end; visibility: hidden; font-family: Roboto, sans-serif; font-size: 12px; font-weight: 200;" fill="rgb(50, 49, 63)" stroke="none" stroke-width="1px">5</text><text x="0" y="132.39547776908253" dx="0em" dy="0.3em" style="text-anchor: end; visibility: inherit; font-family: Roboto, sans-serif; font-size: 12px; font-weight: 200;" fill="rgb(50, 49, 63)" stroke="none" stroke-width="1px">10</text><text x="0" y="116.51274693026939" dx="0em" dy="0.3em" style="text-anchor: end; visibility: hidden; font-family: Roboto, sans-serif; font-size: 12px; font-weight: 200;" fill="rgb(50, 49, 63)" stroke="none" stroke-width="1px">15</text><text x="0" y="100.63001609145624" dx="0em" dy="0.3em" style="text-anchor: end; visibility: inherit; font-family: Roboto, sans-serif; font-size: 12px; font-weight: 200;" fill="rgb(50, 49, 63)" stroke="none" stroke-width="1px">20</text><text x="0" y="84.7472852526431" dx="0em" dy="0.3em" style="text-anchor: end; visibility: hidden; font-family: Roboto, sans-serif; font-size: 12px; font-weight: 200;" fill="rgb(50, 49, 63)" stroke="none" stroke-width="1px">25</text><text x="0" y="68.86455441382995" dx="0em" dy="0.3em" style="text-anchor: end; visibility: inherit; font-family: Roboto, sans-serif; font-size: 12px; font-weight: 200;" fill="rgb(50, 49, 63)" stroke="none" stroke-width="1px">30</text><text x="0" y="52.98182357501679" dx="0em" dy="0.3em" style="text-anchor: end; visibility: hidden; font-family: Roboto, sans-serif; font-size: 12px; font-weight: 200;" fill="rgb(50, 49, 63)" stroke="none" stroke-width="1px">35</text><text x="0" y="37.09909273620365" dx="0em" dy="0.3em" style="text-anchor: end; visibility: inherit; font-family: Roboto, sans-serif; font-size: 12px; font-weight: 200;" fill="rgb(50, 49, 63)" stroke="none" stroke-width="1px">40</text><text x="0" y="21.216361897390495" dx="0em" dy="0.3em" style="text-anchor: end; visibility: hidden; font-family: Roboto, sans-serif; font-size: 12px; font-weight: 200;" fill="rgb(50, 49, 63)" stroke="none" stroke-width="1px">45</text><text x="0" y="5.3336310585773585" dx="0em" dy="0.3em" style="text-anchor: end; visibility: hidden; font-family: Roboto, sans-serif; font-size: 12px; font-weight: 200;" fill="rgb(50, 49, 63)" stroke="none" stroke-width="1px">50</text></g><line x1="30" y1="0" x2="30" y2="178" fill="rgb(0, 0, 0)" stroke="rgb(204, 204, 204)" stroke-width="1px"></line></g></g><g transform="translate(30, 0)" clip-path="url(#clip_0)"><clipPath id="clip_0"><rect width="300" height="178"></rect></clipPath><g><g><g><line x1="10.672974929857267" y1="0" x2="10.672974929857267" y2="178" fill="rgb(0, 0, 0)" stroke="rgb(60, 60, 60)" stroke-width="1px" opacity="0.25"></line><line x1="34.54063451797521" y1="0" x2="34.54063451797521" y2="178" fill="rgb(0, 0, 0)" stroke="rgb(60, 60, 60)" stroke-width="1px" opacity="0.25"></line><line x1="58.40829410609314" y1="0" x2="58.40829410609314" y2="178" fill="rgb(0, 0, 0)" stroke="rgb(60, 60, 60)" stroke-width="1px" opacity="0.25"></line><line x1="82.27595369421107" y1="0" x2="82.27595369421107" y2="178" fill="rgb(0, 0, 0)" stroke="rgb(60, 60, 60)" stroke-width="1px" opacity="0.25"></line><line x1="106.14361328232901" y1="0" x2="106.14361328232901" y2="178" fill="rgb(0, 0, 0)" stroke="rgb(60, 60, 60)" stroke-width="1px" opacity="0.25"></line><line x1="130.01127287044696" y1="0" x2="130.01127287044696" y2="178" fill="rgb(0, 0, 0)" stroke="rgb(60, 60, 60)" stroke-width="1px" opacity="0.25"></line><line x1="153.8789324585649" y1="0" x2="153.8789324585649" y2="178" fill="rgb(0, 0, 0)" stroke="rgb(60, 60, 60)" stroke-width="1px" opacity="0.25"></line><line x1="177.74659204668282" y1="0" x2="177.74659204668282" y2="178" fill="rgb(0, 0, 0)" stroke="rgb(60, 60, 60)" stroke-width="1px" opacity="0.25"></line><line x1="201.61425163480078" y1="0" x2="201.61425163480078" y2="178" fill="rgb(0, 0, 0)" stroke="rgb(60, 60, 60)" stroke-width="1px" opacity="0.25"></line><line x1="225.4819112229187" y1="0" x2="225.4819112229187" y2="178" fill="rgb(0, 0, 0)" stroke="rgb(60, 60, 60)" stroke-width="1px" opacity="0.25"></line><line x1="249.34957081103664" y1="0" x2="249.34957081103664" y2="178" fill="rgb(0, 0, 0)" stroke="rgb(60, 60, 60)" stroke-width="1px" opacity="0.25"></line><line x1="273.2172303991546" y1="0" x2="273.2172303991546" y2="178" fill="rgb(0, 0, 0)" stroke="rgb(60, 60, 60)" stroke-width="1px" opacity="0.25"></line><line x1="297.0848899872725" y1="0" x2="297.0848899872725" y2="178" fill="rgb(0, 0, 0)" stroke="rgb(60, 60, 60)" stroke-width="1px" opacity="0.25"></line></g><g><line x1="0" y1="164.16093944670882" x2="300" y2="164.16093944670882" fill="rgb(0, 0, 0)" stroke="rgb(60, 60, 60)" stroke-width="1px" opacity="0.25"></line><line x1="0" y1="148.2782086078957" x2="300" y2="148.2782086078957" fill="rgb(0, 0, 0)" stroke="rgb(60, 60, 60)" stroke-width="1px" opacity="0.25"></line><line x1="0" y1="132.39547776908253" x2="300" y2="132.39547776908253" fill="rgb(0, 0, 0)" stroke="rgb(60, 60, 60)" stroke-width="1px" opacity="0.25"></line><line x1="0" y1="116.51274693026939" x2="300" y2="116.51274693026939" fill="rgb(0, 0, 0)" stroke="rgb(60, 60, 60)" stroke-width="1px" opacity="0.25"></line><line x1="0" y1="100.63001609145624" x2="300" y2="100.63001609145624" fill="rgb(0, 0, 0)" stroke="rgb(60, 60, 60)" stroke-width="1px" opacity="0.25"></line><line x1="0" y1="84.7472852526431" x2="300" y2="84.7472852526431" fill="rgb(0, 0, 0)" stroke="rgb(60, 60, 60)" stroke-width="1px" opacity="0.25"></line><line x1="0" y1="68.86455441382995" x2="300" y2="68.86455441382995" fill="rgb(0, 0, 0)" stroke="rgb(60, 60, 60)" stroke-width="1px" opacity="0.25"></line><line x1="0" y1="52.98182357501679" x2="300" y2="52.98182357501679" fill="rgb(0, 0, 0)" stroke="rgb(60, 60, 60)" stroke-width="1px" opacity="0.25"></line><line x1="0" y1="37.09909273620365" x2="300" y2="37.09909273620365" fill="rgb(0, 0, 0)" stroke="rgb(60, 60, 60)" stroke-width="1px" opacity="0.25"></line><line x1="0" y1="21.216361897390495" x2="300" y2="21.216361897390495" fill="rgb(0, 0, 0)" stroke="rgb(60, 60, 60)" stroke-width="1px" opacity="0.25"></line><line x1="0" y1="5.3336310585773585" x2="300" y2="5.3336310585773585" fill="rgb(0, 0, 0)" stroke="rgb(60, 60, 60)" stroke-width="1px" opacity="0.25"></line></g></g></g><g><g><line x1="0" y1="164.16093944670882" x2="300" y2="164.16093944670882" fill="rgb(0, 0, 0)" stroke="rgb(153, 153, 153)" stroke-width="1.5px"></line></g></g><g><g><line x1="10.672974929857267" y1="0" x2="10.672974929857267" y2="178" fill="rgb(0, 0, 0)" stroke="rgb(153, 153, 153)" stroke-width="1.5px"></line></g></g><g><g><g><g><g><path stroke="rgb(0, 119, 187)" stroke-width="2px" d="M10.672974929857267,151.6555776156625L15.446506847480856,152.22630266737244L20.220038765104444,152.2659429993481L24.99357068272803,151.982972177289L29.767102600351617,151.45832112561862L34.54063451797521,150.74418397052426L39.314166435598786,149.8948534484586L44.08769835322238,148.9115799403485L48.861230270845965,147.45966578143145L53.63476218846955,145.07255454156112L58.40829410609314,141.28673129864825L63.18182602371673,134.75049261665757L67.95535794134031,130.6521332151489L72.7288898589639,128.0601564136587L77.5024217765875,100.39489903635257L82.27595369421107,91.37814240266168L87.04948561183465,94.15904411298666L91.82301752945826,117.62592676158924L96.59654944708184,11.680349556500987L101.37008136470541,127.53661108951903L106.14361328232901,100.8670477213528L110.9171451999526,77.08298182913498L115.69067711757619,142.08918503219311L120.46420903519976,121.10545741971669L125.23774095282336,129.54811729007662L130.01127287044696,138.36885418239325L134.78480478807055,107.9935070975845L139.55833670569413,102.65285524185592L144.33186862331772,142.63978735753955L149.1054005409413,143.5032908830364L153.8789324585649,102.76336740711622L158.6524643761885,90.75774746439451L163.42599629381206,136.878621263104L168.19952821143568,133.43939361612303L172.97306012905926,135.76330571148512L177.74659204668282,141.20930613637515L182.52012396430644,104.2003042594256L187.29365588193002,58.11685858028273L192.06718779955358,12.52956041764208L196.8407197171772,140.50837182240593L201.61425163480078,130.60920372244317L206.38778355242437,102.69466688946893L211.16131547004795,118.4812539621399L215.93484738767154,84.35887497970769L220.70837930529513,124.59236464369964L225.4819112229187,134.88276186445347L230.25544314054233,141.89131584792165L235.02897505816588,133.22427356767733L239.80250697578947,139.68259632613473L244.57603889341308,136.6546584238032" style="fill: none;" fill="none"></path></g><g><path stroke="rgb(255, 112, 67)" stroke-width="2px" d="M10.672974929857267,151.01067036420443L15.446506847480856,152.22090505085785L20.220038765104444,153.12173218194926L24.99357068272803,153.91941992689777L29.767102600351617,154.67470832247724L34.54063451797521,155.34897112518019L39.314166435598786,155.91061936561928L44.08769835322238,156.35926906854922L48.861230270845965,156.63148631169844L53.63476218846955,156.47985017046753L58.40829410609314,155.2673563158524L63.18182602371673,153.23066982149973L67.95535794134031,149.99870398402024L72.7288898589639,145.96519171544912L77.5024217765875,143.95109690071348L82.27595369421107,127.43222738123026L87.04948561183465,119.48634514059553L91.82301752945826,119.63817516281814L96.59654944708184,130.32340799374742L101.37008136470541,133.87527140872575L106.14361328232901,136.80209582980794L110.9171451999526,140.91259399903038L115.69067711757619,136.33513952011626L120.46420903519976,150.84233319317417L125.23774095282336,146.61264214022782L130.01127287044696,138.56335922851997L134.78480478807055,132.29239972809714L139.55833670569413,151.11074476451395L144.33186862331772,142.39365695329104L149.1054005409413,148.01348834887415L153.8789324585649,148.38844055453518L158.6524643761885,143.39798926942763L163.42599629381206,139.18145031531566L168.19952821143568,143.84169955115536L172.97306012905926,142.5378286763421L177.74659204668282,140.66625608153294L182.52012396430644,141.70502953820804L187.29365588193002,150.93900104387197L192.06718779955358,134.7244398583999L196.8407197171772,139.48685225929552L201.61425163480078,146.79355885528886L206.38778355242437,135.5018299296838L211.16131547004795,137.6098918934909L215.93484738767154,117.22060643091032L220.70837930529513,142.60091421870675L225.4819112229187,127.8150211641878L230.25544314054233,136.59566710269263L235.02897505816588,140.11604606225563L239.80250697578947,139.12387069017575L244.57603889341308,140.55317196374233" style="fill: none;" fill="none"></path></g></g></g></g></g></g><g transform="translate(30, 178)" clip-path="url(#clip_1)"><clipPath id="clip_1"><rect width="300" height="22"></rect></clipPath><g><g><line x1="10.672974929857267" y1="0" x2="10.672974929857267" y2="5" style="visibility: inherit;" fill="rgb(0, 0, 0)" stroke="rgb(204, 204, 204)" stroke-width="1px"></line><line x1="34.54063451797521" y1="0" x2="34.54063451797521" y2="5" style="visibility: inherit;" fill="rgb(0, 0, 0)" stroke="rgb(204, 204, 204)" stroke-width="1px"></line><line x1="58.40829410609314" y1="0" x2="58.40829410609314" y2="5" style="visibility: inherit;" fill="rgb(0, 0, 0)" stroke="rgb(204, 204, 204)" stroke-width="1px"></line><line x1="82.27595369421107" y1="0" x2="82.27595369421107" y2="5" style="visibility: inherit;" fill="rgb(0, 0, 0)" stroke="rgb(204, 204, 204)" stroke-width="1px"></line><line x1="106.14361328232901" y1="0" x2="106.14361328232901" y2="5" style="visibility: inherit;" fill="rgb(0, 0, 0)" stroke="rgb(204, 204, 204)" stroke-width="1px"></line><line x1="130.01127287044696" y1="0" x2="130.01127287044696" y2="5" style="visibility: inherit;" fill="rgb(0, 0, 0)" stroke="rgb(204, 204, 204)" stroke-width="1px"></line><line x1="153.8789324585649" y1="0" x2="153.8789324585649" y2="5" style="visibility: inherit;" fill="rgb(0, 0, 0)" stroke="rgb(204, 204, 204)" stroke-width="1px"></line><line x1="177.74659204668282" y1="0" x2="177.74659204668282" y2="5" style="visibility: inherit;" fill="rgb(0, 0, 0)" stroke="rgb(204, 204, 204)" stroke-width="1px"></line><line x1="201.61425163480078" y1="0" x2="201.61425163480078" y2="5" style="visibility: inherit;" fill="rgb(0, 0, 0)" stroke="rgb(204, 204, 204)" stroke-width="1px"></line><line x1="225.4819112229187" y1="0" x2="225.4819112229187" y2="5" style="visibility: inherit;" fill="rgb(0, 0, 0)" stroke="rgb(204, 204, 204)" stroke-width="1px"></line><line x1="249.34957081103664" y1="0" x2="249.34957081103664" y2="5" style="visibility: inherit;" fill="rgb(0, 0, 0)" stroke="rgb(204, 204, 204)" stroke-width="1px"></line><line x1="273.2172303991546" y1="0" x2="273.2172303991546" y2="5" style="visibility: inherit;" fill="rgb(0, 0, 0)" stroke="rgb(204, 204, 204)" stroke-width="1px"></line><line x1="297.0848899872725" y1="0" x2="297.0848899872725" y2="5" style="visibility: inherit;" fill="rgb(0, 0, 0)" stroke="rgb(204, 204, 204)" stroke-width="1px"></line></g><g transform="translate(0, 8)"><text x="10.672974929857267" y="0" dx="0em" dy="0.95em" style="text-anchor: middle; visibility: inherit; font-family: Roboto, sans-serif; font-size: 12px; font-weight: 200;" fill="rgb(50, 49, 63)" stroke="none" stroke-width="1px">0</text><text x="34.54063451797521" y="0" dx="0em" dy="0.95em" style="text-anchor: middle; visibility: inherit; font-family: Roboto, sans-serif; font-size: 12px; font-weight: 200;" fill="rgb(50, 49, 63)" stroke="none" stroke-width="1px">5</text><text x="58.40829410609314" y="0" dx="0em" dy="0.95em" style="text-anchor: middle; visibility: inherit; font-family: Roboto, sans-serif; font-size: 12px; font-weight: 200;" fill="rgb(50, 49, 63)" stroke="none" stroke-width="1px">10</text><text x="82.27595369421107" y="0" dx="0em" dy="0.95em" style="text-anchor: middle; visibility: inherit; font-family: Roboto, sans-serif; font-size: 12px; font-weight: 200;" fill="rgb(50, 49, 63)" stroke="none" stroke-width="1px">15</text><text x="106.14361328232901" y="0" dx="0em" dy="0.95em" style="text-anchor: middle; visibility: inherit; font-family: Roboto, sans-serif; font-size: 12px; font-weight: 200;" fill="rgb(50, 49, 63)" stroke="none" stroke-width="1px">20</text><text x="130.01127287044696" y="0" dx="0em" dy="0.95em" style="text-anchor: middle; visibility: inherit; font-family: Roboto, sans-serif; font-size: 12px; font-weight: 200;" fill="rgb(50, 49, 63)" stroke="none" stroke-width="1px">25</text><text x="153.8789324585649" y="0" dx="0em" dy="0.95em" style="text-anchor: middle; visibility: inherit; font-family: Roboto, sans-serif; font-size: 12px; font-weight: 200;" fill="rgb(50, 49, 63)" stroke="none" stroke-width="1px">30</text><text x="177.74659204668282" y="0" dx="0em" dy="0.95em" style="text-anchor: middle; visibility: inherit; font-family: Roboto, sans-serif; font-size: 12px; font-weight: 200;" fill="rgb(50, 49, 63)" stroke="none" stroke-width="1px">35</text><text x="201.61425163480078" y="0" dx="0em" dy="0.95em" style="text-anchor: middle; visibility: inherit; font-family: Roboto, sans-serif; font-size: 12px; font-weight: 200;" fill="rgb(50, 49, 63)" stroke="none" stroke-width="1px">40</text><text x="225.4819112229187" y="0" dx="0em" dy="0.95em" style="text-anchor: middle; visibility: inherit; font-family: Roboto, sans-serif; font-size: 12px; font-weight: 200;" fill="rgb(50, 49, 63)" stroke="none" stroke-width="1px">45</text><text x="249.34957081103664" y="0" dx="0em" dy="0.95em" style="text-anchor: middle; visibility: inherit; font-family: Roboto, sans-serif; font-size: 12px; font-weight: 200;" fill="rgb(50, 49, 63)" stroke="none" stroke-width="1px">50</text><text x="273.2172303991546" y="0" dx="0em" dy="0.95em" style="text-anchor: middle; visibility: inherit; font-family: Roboto, sans-serif; font-size: 12px; font-weight: 200;" fill="rgb(50, 49, 63)" stroke="none" stroke-width="1px">55</text><text x="297.0848899872725" y="0" dx="0em" dy="0.95em" style="text-anchor: middle; visibility: hidden; font-family: Roboto, sans-serif; font-size: 12px; font-weight: 200;" fill="rgb(50, 49, 63)" stroke="none" stroke-width="1px">60</text></g><line x1="0" y1="0" x2="300" y2="0" fill="rgb(0, 0, 0)" stroke="rgb(204, 204, 204)" stroke-width="1px"></line></g></g></g></g></svg>