<svg viewBox="0 0 330 200" xmlns="http://www.w3.org/2000/svg"><g><g><g><g><g><line x1="50" y1="167.48806226288255" x2="45" y2="167.48806226288255" style="visibility: inherit;" fill="rgb(0, 0, 0)" stroke="rgb(204, 204, 204)" stroke-width="1px"></line><line x1="50" y1="148.7189043223771" x2="45" y2="148.7189043223771" style="visibility: inherit;" fill="rgb(0, 0, 0)" stroke="rgb(204, 204, 204)" stroke-width="1px"></line><line x1="50" y1="129.9497463818717" x2="45" y2="129.9497463818717" style="visibility: inherit;" fill="rgb(0, 0, 0)" stroke="rgb(204, 204, 204)" stroke-width="1px"></line><line x1="50" y1="111.18058844136628" x2="45" y2="111.18058844136628" style="visibility: inherit;" fill="rgb(0, 0, 0)" stroke="rgb(204, 204, 204)" stroke-width="1px"></line><line x1="50" y1="92.41143050086086" x2="45" y2="92.41143050086086" style="visibility: inherit;" fill="rgb(0, 0, 0)" stroke="rgb(204, 204, 204)" stroke-width="1px"></line><line x1="50" y1="73.64227256035542" x2="45" y2="73.64227256035542" style="visibility: inherit;" fill="rgb(0, 0, 0)" stroke="rgb(204, 204, 204)" stroke-width="1px"></line><line x1="50" y1="54.873114619850014" x2="45" y2="54.873114619850014" style="visibility: inherit;" fill="rgb(0, 0, 0)" stroke="rgb(204, 204, 204)" stroke-width="1px"></line><line x1="50" y1="36.103956679344584" x2="45" y2="36.103956679344584" style="visibility: inherit;" fill="rgb(0, 0, 0)" stroke="rgb(204, 204, 204)" stroke-width="1px"></line><line x1="50" y1="17.334798738839133" x2="45" y2="17.334798738839133" style="visibility: inherit;" fill="rgb(0, 0, 0)" stroke="rgb(204, 204, 204)" stroke-width="1px"></line></g><g transform="translate(40, 0)"><text x="0" y="167.48806226288255" dx="0em" dy="0.3em" style="text-anchor: end; visibility: inherit; font-family: Roboto, sans-serif; font-size: 12px; font-weight: 200;" fill="rgb(50, 49, 63)" stroke="none" stroke-width="1px">0</text><text x="0" y="148.7189043223771" dx="0em" dy="0.3em" style="text-anchor: end; visibility: hidden; font-family: Roboto, sans-serif; font-size: 12px; font-weight: 200;" fill="rgb(50, 49, 63)" stroke="none" stroke-width="1px">0.05</text><text x="0" y="129.9497463818717" dx="0em" dy="0.3em" style="text-anchor: end; visibility: inherit; font-family: Roboto, sans-serif; font-size: 12px; font-weight: 200;" fill="rgb(50, 49, 63)" stroke="none" stroke-width="1px">0.1</text><text x="0" y="111.18058844136628" dx="0em" dy="0.3em" style="text-anchor: end; visibility: hidden; font-family: Roboto, sans-serif; font-size: 12px; font-weight: 200;" fill="rgb(50, 49, 63)" stroke="none" stroke-width="1px">0.15</text><text x="0" y="92.41143050086086" dx="0em" dy="0.3em" style="text-anchor: end; visibility: inherit; font-family: Roboto, sans-serif; font-size: 12px; font-weight: 200;" fill="rgb(50, 49, 63)" stroke="none" stroke-width="1px">0.2</text><text x="0" y="73.64227256035542" dx="0em" dy="0.3em" style="text-anchor: end; visibility: hidden; font-family: Roboto, sans-serif; font-size: 12px; font-weight: 200;" fill="rgb(50, 49, 63)" stroke="none" stroke-width="1px">0.25</text><text x="0" y="54.873114619850014" dx="0em" dy="0.3em" style="text-anchor: end; visibility: inherit; font-family: Roboto, sans-serif; font-size: 12px; font-weight: 200;" fill="rgb(50, 49, 63)" stroke="none" stroke-width="1px">0.3</text><text x="0" y="36.103956679344584" dx="0em" dy="0.3em" style="text-anchor: end; visibility: hidden; font-family: Roboto, sans-serif; font-size: 12px; font-weight: 200;" fill="rgb(50, 49, 63)" stroke="none" stroke-width="1px">0.35</text><text x="0" y="17.334798738839133" dx="0em" dy="0.3em" style="text-anchor: end; visibility: inherit; font-family: Roboto, sans-serif; font-size: 12px; font-weight: 200;" fill="rgb(50, 49, 63)" stroke="none" stroke-width="1px">0.4</text></g><line x1="50" y1="0" x2="50" y2="178" fill="rgb(0, 0, 0)" stroke="rgb(204, 204, 204)" stroke-width="1px"></line></g></g><g transform="translate(50, 0)" clip-path="url(#clip_0)"><clipPath id="clip_0"><rect width="280" height="178"></rect></clipPath><g><g><g><line x1="20.681616763038054" y1="0" x2="20.681616763038054" y2="178" fill="rgb(0, 0, 0)" stroke="rgb(60, 60, 60)" stroke-width="1px" opacity="0.25"></line><line x1="42.825005344533196" y1="0" x2="42.825005344533196" y2="178" fill="rgb(0, 0, 0)" stroke="rgb(60, 60, 60)" stroke-width="1px" opacity="0.25"></line><line x1="64.96839392602834" y1="0" x2="64.96839392602834" y2="178" fill="rgb(0, 0, 0)" stroke="rgb(60, 60, 60)" stroke-width="1px" opacity="0.25"></line><line x1="87.11178250752347" y1="0" x2="87.11178250752347" y2="178" fill="rgb(0, 0, 0)" stroke="rgb(60, 60, 60)" stroke-width="1px" opacity="0.25"></line><line x1="109.25517108901862" y1="0" x2="109.25517108901862" y2="178" fill="rgb(0, 0, 0)" stroke="rgb(60, 60, 60)" stroke-width="1px" opacity="0.25"></line><line x1="131.39855967051378" y1="0" x2="131.39855967051378" y2="178" fill="rgb(0, 0, 0)" stroke="rgb(60, 60, 60)" stroke-width="1px" opacity="0.25"></line><line x1="153.54194825200892" y1="0" x2="153.54194825200892" y2="178" fill="rgb(0, 0, 0)" stroke="rgb(60, 60, 60)" stroke-width="1px" opacity="0.25"></line><line x1="175.68533683350404" y1="0" x2="175.68533683350404" y2="178" fill="rgb(0, 0, 0)" stroke="rgb(60, 60, 60)" stroke-width="1px" opacity="0.25"></line><line x1="197.82872541499918" y1="0" x2="197.82872541499918" y2="178" fill="rgb(0, 0, 0)" stroke="rgb(60, 60, 60)" stroke-width="1px" opacity="0.25"></line><line x1="219.97211399649433" y1="0" x2="219.97211399649433" y2="178" fill="rgb(0, 0, 0)" stroke="rgb(60, 60, 60)" stroke-width="1px" opacity="0.25"></line><line x1="242.11550257798947" y1="0" x2="242.11550257798947" y2="178" fill="rgb(0, 0, 0)" stroke="rgb(60, 60, 60)" stroke-width="1px" opacity="0.25"></line><line x1="264.2588911594846" y1="0" x2="264.2588911594846" y2="178" fill="rgb(0, 0, 0)" stroke="rgb(60, 60, 60)" stroke-width="1px" opacity="0.25"></line></g><g><line x1="0" y1="167.48806226288255" x2="280" y2="167.48806226288255" fill="rgb(0, 0, 0)" stroke="rgb(60, 60, 60)" stroke-width="1px" opacity="0.25"></line><line x1="0" y1="148.7189043223771" x2="280" y2="148.7189043223771" fill="rgb(0, 0, 0)" stroke="rgb(60, 60, 60)" stroke-width="1px" opacity="0.25"></line><line x1="0" y1="129.9497463818717" x2="280" y2="129.9497463818717" fill="rgb(0, 0, 0)" stroke="rgb(60, 60, 60)" stroke-width="1px" opacity="0.25"></line><line x1="0" y1="111.18058844136628" x2="280" y2="111.18058844136628" fill="rgb(0, 0, 0)" stroke="rgb(60, 60, 60)" stroke-width="1px" opacity="0.25"></line><line x1="0" y1="92.41143050086086" x2="280" y2="92.41143050086086" fill="rgb(0, 0, 0)" stroke="rgb(60, 60, 60)" stroke-width="1px" opacity="0.25"></line><line x1="0" y1="73.64227256035542" x2="280" y2="73.64227256035542" fill="rgb(0, 0, 0)" stroke="rgb(60, 60, 60)" stroke-width="1px" opacity="0.25"></line><line x1="0" y1="54.873114619850014" x2="280" y2="54.873114619850014" fill="rgb(0, 0, 0)" stroke="rgb(60, 60, 60)" stroke-width="1px" opacity="0.25"></line><line x1="0" y1="36.103956679344584" x2="280" y2="36.103956679344584" fill="rgb(0, 0, 0)" stroke="rgb(60, 60, 60)" stroke-width="1px" opacity="0.25"></line><line x1="0" y1="17.334798738839133" x2="280" y2="17.334798738839133" fill="rgb(0, 0, 0)" stroke="rgb(60, 60, 60)" stroke-width="1px" opacity="0.25"></line></g></g></g><g><g><line x1="0" y1="167.48806226288255" x2="280" y2="167.48806226288255" fill="rgb(0, 0, 0)" stroke="rgb(153, 153, 153)" stroke-width="1.5px"></line></g></g><g><g><line x1="20.681616763038054" y1="0" x2="20.681616763038054" y2="178" fill="rgb(0, 0, 0)" stroke="rgb(153, 153, 153)" stroke-width="1.5px"></line></g></g><g><g><g><g><g><path stroke="rgb(0, 119, 187)" stroke-width="2px" d="M20.681616763038054,124.27644176576258L25.11029447933708,112.7343777132975L29.53897219563611,109.69112720519122L33.96764991193514,111.410686382937L38.39632762823417,114.25600017052814L42.825005344533196,117.41058099425109L47.25368306083222,120.33012245044665L51.68236077713125,122.66822409092343L56.111038493430286,126.81248012675448L60.539716209729306,128.56915313880245L64.96839392602834,131.3402364609667L69.39707164232736,134.81646585393796L73.8257493586264,134.69275680202725L78.25442707492543,136.73395895537632L82.68310479122445,139.15865861028414L87.11178250752347,141.80603567736014L91.54046022382252,141.17511727515756L95.96913794012154,139.49267193171403L100.39781565642056,153.96664778620126L104.8264933727196,140.02462197365904L109.25517108901862,146.48224175513624L113.68384880531765,151.3563845534274L118.11252652161669,139.24525382789264L122.54120423791571,147.27398164514045L126.96988195421473,142.56066033465098L131.39855967051378,135.5834636538778L135.82723738681278,146.37090444746335L140.25591510311182,147.96675177647592L144.68459281941085,135.53397947374904L149.11327053570986,134.2474047745132L153.54194825200892,145.77709987956297L157.97062596830793,152.46976741903498L162.39930368460696,139.23288348206606L166.827981400906,142.3256125766561L171.256659117205,138.54011335073062L175.68533683350404,137.51332710114278L180.11401454980307,148.44921763829217L184.5426922661021,153.1872796404348L188.97136998240114,150.2801141237108L193.40004769870015,135.91747697530772L197.82872541499918,139.0596902500266L202.2574031312982,142.31324223082953L206.68608084759725,144.28021811398548L211.1147585638963,148.115202918451L215.5434362801953,141.9173743834443L219.97211399649433,141.29882632706827L224.40079171279336,137.20405447136602L228.82946942909237,141.7936653315336L233.25814714539143,138.5772243882103L237.68682486169044,138.84938598050738" style="fill: none;" fill="none"></path></g><g><path stroke="rgb(255, 112, 67)" stroke-width="2px" d="M20.681616763038054,137.28995048335463L25.11029447933708,112.1709018883642L29.53897219563611,94.14978880058443L33.96764991193514,77.92440914760051L38.39632762823417,61.28994945783847L42.825005344533196,46.01025938982847L47.25368306083222,32.149084121521994L51.68236077713125,21.05058772382906L56.111038493430286,14.808012825973723L60.539716209729306,17.103163663633737L64.96839392602834,28.291975052832836L69.39707164232736,39.56579865811706L73.8257493586264,46.97187408200033L78.25442707492543,52.486592710515616L82.68310479122445,53.15600657732522L87.11178250752347,69.67359264931635L91.54046022382252,70.34832047883688L95.96913794012154,65.9014846094224L100.39781565642056,61.390892374766516L104.8264933727196,56.1418159453487L109.25517108901862,63.032560046459785L113.68384880531765,53.42696273913362L118.11252652161669,64.42983018260946L122.54120423791571,43.375093249697684L126.96988195421473,40.75055503498877L131.39855967051378,58.54321247535776L135.82723738681278,52.65129199268501L140.25591510311182,48.77292707315208L144.68459281941085,53.533219618772605L149.11327053570986,46.18026144741891L153.54194825200892,39.470169703899955L157.97062596830793,52.04562330382686L162.39930368460696,56.529656912217945L166.827981400906,48.00257028941443L171.256659117205,53.37383429931413L175.68533683350404,52.975376594312905L180.11401454980307,51.10525327520883L184.5426922661021,38.55635830154672L188.97136998240114,55.185504028597855L193.40004769870015,51.11588120063071L197.82872541499918,33.96076503809564L202.2574031312982,60.174252221629146L206.68608084759725,52.59284959015458L211.1147585638963,73.62633067222261L215.5434362801953,49.41046835098599L219.97211399649433,79.60326337098049L224.40079171279336,62.57564875163821L228.82946942909237,59.45170991500005L233.25814714539143,52.29002083937046L237.68682486169044,45.505533617898344" style="fill: none;" fill="none"></path></g></g></g></g></g></g><g transform="translate(50, 178)" clip-path="url(#clip_1)"><clipPath id="clip_1"><rect width="280" height="22"></rect></clipPath><g><g><line x1="20.681616763038054" y1="0" x2="20.681616763038054" y2="5" style="visibility: inherit;" fill="rgb(0, 0, 0)" stroke="rgb(204, 204, 204)" stroke-width="1px"></line><line x1="42.825005344533196" y1="0" x2="42.825005344533196" y2="5" style="visibility: inherit;" fill="rgb(0, 0, 0)" stroke="rgb(204, 204, 204)" stroke-width="1px"></line><line x1="64.96839392602834" y1="0" x2="64.96839392602834" y2="5" style="visibility: inherit;" fill="rgb(0, 0, 0)" stroke="rgb(204, 204, 204)" stroke-width="1px"></line><line x1="87.11178250752347" y1="0" x2="87.11178250752347" y2="5" style="visibility: inherit;" fill="rgb(0, 0, 0)" stroke="rgb(204, 204, 204)" stroke-width="1px"></line><line x1="109.25517108901862" y1="0" x2="109.25517108901862" y2="5" style="visibility: inherit;" fill="rgb(0, 0, 0)" stroke="rgb(204, 204, 204)" stroke-width="1px"></line><line x1="131.39855967051378" y1="0" x2="131.39855967051378" y2="5" style="visibility: inherit;" fill="rgb(0, 0, 0)" stroke="rgb(204, 204, 204)" stroke-width="1px"></line><line x1="153.54194825200892" y1="0" x2="153.54194825200892" y2="5" style="visibility: inherit;" fill="rgb(0, 0, 0)" stroke="rgb(204, 204, 204)" stroke-width="1px"></line><line x1="175.68533683350404" y1="0" x2="175.68533683350404" y2="5" style="visibility: inherit;" fill="rgb(0, 0, 0)" stroke="rgb(204, 204, 204)" stroke-width="1px"></line><line x1="197.82872541499918" y1="0" x2="197.82872541499918" y2="5" style="visibility: inherit;" fill="rgb(0, 0, 0)" stroke="rgb(204, 204, 204)" stroke-width="1px"></line><line x1="219.97211399649433" y1="0" x2="219.97211399649433" y2="5" style="visibility: inherit;" fill="rgb(0, 0, 0)" stroke="rgb(204, 204, 204)" stroke-width="1px"></line><line x1="242.11550257798947" y1="0" x2="242.11550257798947" y2="5" style="visibility: inherit;" fill="rgb(0, 0, 0)" stroke="rgb(204, 204, 204)" stroke-width="1px"></line><line x1="264.2588911594846" y1="0" x2="264.2588911594846" y2="5" style="visibility: inherit;" fill="rgb(0, 0, 0)" stroke="rgb(204, 204, 204)" stroke-width="1px"></line></g><g transform="translate(0, 8)"><text x="20.681616763038054" y="0" dx="0em" dy="0.95em" style="text-anchor: middle; visibility: inherit; font-family: Roboto, sans-serif; font-size: 12px; font-weight: 200;" fill="rgb(50, 49, 63)" stroke="none" stroke-width="1px">0</text><text x="42.825005344533196" y="0" dx="0em" dy="0.95em" style="text-anchor: middle; visibility: inherit; font-family: Roboto, sans-serif; font-size: 12px; font-weight: 200;" fill="rgb(50, 49, 63)" stroke="none" stroke-width="1px">5</text><text x="64.96839392602834" y="0" dx="0em" dy="0.95em" style="text-anchor: middle; visibility: inherit; font-family: Roboto, sans-serif; font-size: 12px; font-weight: 200;" fill="rgb(50, 49, 63)" stroke="none" stroke-width="1px">10</text><text x="87.11178250752347" y="0" dx="0em" dy="0.95em" style="text-anchor: middle; visibility: inherit; font-family: Roboto, sans-serif; font-size: 12px; font-weight: 200;" fill="rgb(50, 49, 63)" stroke="none" stroke-width="1px">15</text><text x="109.25517108901862" y="0" dx="0em" dy="0.95em" style="text-anchor: middle; visibility: inherit; font-family: Roboto, sans-serif; font-size: 12px; font-weight: 200;" fill="rgb(50, 49, 63)" stroke="none" stroke-width="1px">20</text><text x="131.39855967051378" y="0" dx="0em" dy="0.95em" style="text-anchor: middle; visibility: inherit; font-family: Roboto, sans-serif; font-size: 12px; font-weight: 200;" fill="rgb(50, 49, 63)" stroke="none" stroke-width="1px">25</text><text x="153.54194825200892" y="0" dx="0em" dy="0.95em" style="text-anchor: middle; visibility: inherit; font-family: Roboto, sans-serif; font-size: 12px; font-weight: 200;" fill="rgb(50, 49, 63)" stroke="none" stroke-width="1px">30</text><text x="175.68533683350404" y="0" dx="0em" dy="0.95em" style="text-anchor: middle; visibility: inherit; font-family: Roboto, sans-serif; font-size: 12px; font-weight: 200;" fill="rgb(50, 49, 63)" stroke="none" stroke-width="1px">35</text><text x="197.82872541499918" y="0" dx="0em" dy="0.95em" style="text-anchor: middle; visibility: inherit; font-family: Roboto, sans-serif; font-size: 12px; font-weight: 200;" fill="rgb(50, 49, 63)" stroke="none" stroke-width="1px">40</text><text x="219.97211399649433" y="0" dx="0em" dy="0.95em" style="text-anchor: middle; visibility: inherit; font-family: Roboto, sans-serif; font-size: 12px; font-weight: 200;" fill="rgb(50, 49, 63)" stroke="none" stroke-width="1px">45</text><text x="242.11550257798947" y="0" dx="0em" dy="0.95em" style="text-anchor: middle; visibility: inherit; font-family: Roboto, sans-serif; font-size: 12px; font-weight: 200;" fill="rgb(50, 49, 63)" stroke="none" stroke-width="1px">50</text><text x="264.2588911594846" y="0" dx="0em" dy="0.95em" style="text-anchor: middle; visibility: inherit; font-family: Roboto, sans-serif; font-size: 12px; font-weight: 200;" fill="rgb(50, 49, 63)" stroke="none" stroke-width="1px">55</text></g><line x1="0" y1="0" x2="280" y2="0" fill="rgb(0, 0, 0)" stroke="rgb(204, 204, 204)" stroke-width="1px"></line></g></g></g></g></svg>