<svg viewBox="0 0 1426 400" xmlns="http://www.w3.org/2000/svg"><g><g><g><g><g><line x1="51.5625" y1="378" x2="46.5625" y2="378" style="visibility: inherit;" fill="rgb(0, 0, 0)" stroke="rgb(204, 204, 204)" stroke-width="1px"></line><line x1="51.5625" y1="343.6363636363636" x2="46.5625" y2="343.6363636363636" style="visibility: inherit;" fill="rgb(0, 0, 0)" stroke="rgb(204, 204, 204)" stroke-width="1px"></line><line x1="51.5625" y1="309.27272727272725" x2="46.5625" y2="309.27272727272725" style="visibility: inherit;" fill="rgb(0, 0, 0)" stroke="rgb(204, 204, 204)" stroke-width="1px"></line><line x1="51.5625" y1="274.90909090909093" x2="46.5625" y2="274.90909090909093" style="visibility: inherit;" fill="rgb(0, 0, 0)" stroke="rgb(204, 204, 204)" stroke-width="1px"></line><line x1="51.5625" y1="240.54545454545453" x2="46.5625" y2="240.54545454545453" style="visibility: inherit;" fill="rgb(0, 0, 0)" stroke="rgb(204, 204, 204)" stroke-width="1px"></line><line x1="51.5625" y1="206.18181818181816" x2="46.5625" y2="206.18181818181816" style="visibility: inherit;" fill="rgb(0, 0, 0)" stroke="rgb(204, 204, 204)" stroke-width="1px"></line><line x1="51.5625" y1="171.81818181818184" x2="46.5625" y2="171.81818181818184" style="visibility: inherit;" fill="rgb(0, 0, 0)" stroke="rgb(204, 204, 204)" stroke-width="1px"></line><line x1="51.5625" y1="137.4545454545455" x2="46.5625" y2="137.4545454545455" style="visibility: inherit;" fill="rgb(0, 0, 0)" stroke="rgb(204, 204, 204)" stroke-width="1px"></line><line x1="51.5625" y1="103.09090909090912" x2="46.5625" y2="103.09090909090912" style="visibility: inherit;" fill="rgb(0, 0, 0)" stroke="rgb(204, 204, 204)" stroke-width="1px"></line><line x1="51.5625" y1="68.72727272727275" x2="46.5625" y2="68.72727272727275" style="visibility: inherit;" fill="rgb(0, 0, 0)" stroke="rgb(204, 204, 204)" stroke-width="1px"></line><line x1="51.5625" y1="34.363636363636374" x2="46.5625" y2="34.363636363636374" style="visibility: inherit;" fill="rgb(0, 0, 0)" stroke="rgb(204, 204, 204)" stroke-width="1px"></line><line x1="51.5625" y1="0" x2="46.5625" y2="0" style="visibility: inherit;" fill="rgb(0, 0, 0)" stroke="rgb(204, 204, 204)" stroke-width="1px"></line></g><g transform="translate(41.5625, 0)"><text x="0" y="378" dx="0em" dy="0.3em" style="text-anchor: end; visibility: hidden; font-family: Roboto, sans-serif; font-size: 12px; font-weight: 200;" fill="rgb(50, 49, 63)" stroke="none" stroke-width="1px">-0.1</text><text x="0" y="343.6363636363636" dx="0em" dy="0.3em" style="text-anchor: end; visibility: inherit; font-family: Roboto, sans-serif; font-size: 12px; font-weight: 200;" fill="rgb(50, 49, 63)" stroke="none" stroke-width="1px">0</text><text x="0" y="309.27272727272725" dx="0em" dy="0.3em" style="text-anchor: end; visibility: inherit; font-family: Roboto, sans-serif; font-size: 12px; font-weight: 200;" fill="rgb(50, 49, 63)" stroke="none" stroke-width="1px">0.1</text><text x="0" y="274.90909090909093" dx="0em" dy="0.3em" style="text-anchor: end; visibility: inherit; font-family: Roboto, sans-serif; font-size: 12px; font-weight: 200;" fill="rgb(50, 49, 63)" stroke="none" stroke-width="1px">0.2</text><text x="0" y="240.54545454545453" dx="0em" dy="0.3em" style="text-anchor: end; visibility: inherit; font-family: Roboto, sans-serif; font-size: 12px; font-weight: 200;" fill="rgb(50, 49, 63)" stroke="none" stroke-width="1px">0.3</text><text x="0" y="206.18181818181816" dx="0em" dy="0.3em" style="text-anchor: end; visibility: inherit; font-family: Roboto, sans-serif; font-size: 12px; font-weight: 200;" fill="rgb(50, 49, 63)" stroke="none" stroke-width="1px">0.4</text><text x="0" y="171.81818181818184" dx="0em" dy="0.3em" style="text-anchor: end; visibility: inherit; font-family: Roboto, sans-serif; font-size: 12px; font-weight: 200;" fill="rgb(50, 49, 63)" stroke="none" stroke-width="1px">0.5</text><text x="0" y="137.4545454545455" dx="0em" dy="0.3em" style="text-anchor: end; visibility: inherit; font-family: Roboto, sans-serif; font-size: 12px; font-weight: 200;" fill="rgb(50, 49, 63)" stroke="none" stroke-width="1px">0.6</text><text x="0" y="103.09090909090912" dx="0em" dy="0.3em" style="text-anchor: end; visibility: inherit; font-family: Roboto, sans-serif; font-size: 12px; font-weight: 200;" fill="rgb(50, 49, 63)" stroke="none" stroke-width="1px">0.7</text><text x="0" y="68.72727272727275" dx="0em" dy="0.3em" style="text-anchor: end; visibility: inherit; font-family: Roboto, sans-serif; font-size: 12px; font-weight: 200;" fill="rgb(50, 49, 63)" stroke="none" stroke-width="1px">0.8</text><text x="0" y="34.363636363636374" dx="0em" dy="0.3em" style="text-anchor: end; visibility: inherit; font-family: Roboto, sans-serif; font-size: 12px; font-weight: 200;" fill="rgb(50, 49, 63)" stroke="none" stroke-width="1px">0.9</text><text x="0" y="0" dx="0em" dy="0.3em" style="text-anchor: end; visibility: hidden; font-family: Roboto, sans-serif; font-size: 12px; font-weight: 200;" fill="rgb(50, 49, 63)" stroke="none" stroke-width="1px">1</text></g><line x1="51.5625" y1="0" x2="51.5625" y2="378" fill="rgb(0, 0, 0)" stroke="rgb(204, 204, 204)" stroke-width="1px"></line></g></g><g transform="translate(51, 0)" clip-path="url(#clip_0)"><clipPath id="clip_0"><rect width="1374" height="378"></rect></clipPath><g><g><g><line x1="0" y1="0" x2="0" y2="378" fill="rgb(0, 0, 0)" stroke="rgb(60, 60, 60)" stroke-width="1px" opacity="0.25"></line><line x1="114.53645833333333" y1="0" x2="114.53645833333333" y2="378" fill="rgb(0, 0, 0)" stroke="rgb(60, 60, 60)" stroke-width="1px" opacity="0.25"></line><line x1="229.07291666666666" y1="0" x2="229.07291666666666" y2="378" fill="rgb(0, 0, 0)" stroke="rgb(60, 60, 60)" stroke-width="1px" opacity="0.25"></line><line x1="343.609375" y1="0" x2="343.609375" y2="378" fill="rgb(0, 0, 0)" stroke="rgb(60, 60, 60)" stroke-width="1px" opacity="0.25"></line><line x1="458.1458333333333" y1="0" x2="458.1458333333333" y2="378" fill="rgb(0, 0, 0)" stroke="rgb(60, 60, 60)" stroke-width="1px" opacity="0.25"></line><line x1="572.6822916666667" y1="0" x2="572.6822916666667" y2="378" fill="rgb(0, 0, 0)" stroke="rgb(60, 60, 60)" stroke-width="1px" opacity="0.25"></line><line x1="687.21875" y1="0" x2="687.21875" y2="378" fill="rgb(0, 0, 0)" stroke="rgb(60, 60, 60)" stroke-width="1px" opacity="0.25"></line><line x1="801.7552083333334" y1="0" x2="801.7552083333334" y2="378" fill="rgb(0, 0, 0)" stroke="rgb(60, 60, 60)" stroke-width="1px" opacity="0.25"></line><line x1="916.2916666666666" y1="0" x2="916.2916666666666" y2="378" fill="rgb(0, 0, 0)" stroke="rgb(60, 60, 60)" stroke-width="1px" opacity="0.25"></line><line x1="1030.828125" y1="0" x2="1030.828125" y2="378" fill="rgb(0, 0, 0)" stroke="rgb(60, 60, 60)" stroke-width="1px" opacity="0.25"></line><line x1="1145.3645833333335" y1="0" x2="1145.3645833333335" y2="378" fill="rgb(0, 0, 0)" stroke="rgb(60, 60, 60)" stroke-width="1px" opacity="0.25"></line><line x1="1259.9010416666665" y1="0" x2="1259.9010416666665" y2="378" fill="rgb(0, 0, 0)" stroke="rgb(60, 60, 60)" stroke-width="1px" opacity="0.25"></line><line x1="1374.4375" y1="0" x2="1374.4375" y2="378" fill="rgb(0, 0, 0)" stroke="rgb(60, 60, 60)" stroke-width="1px" opacity="0.25"></line></g><g><line x1="0" y1="378" x2="1374.4375" y2="378" fill="rgb(0, 0, 0)" stroke="rgb(60, 60, 60)" stroke-width="1px" opacity="0.25"></line><line x1="0" y1="343.6363636363636" x2="1374.4375" y2="343.6363636363636" fill="rgb(0, 0, 0)" stroke="rgb(60, 60, 60)" stroke-width="1px" opacity="0.25"></line><line x1="0" y1="309.27272727272725" x2="1374.4375" y2="309.27272727272725" fill="rgb(0, 0, 0)" stroke="rgb(60, 60, 60)" stroke-width="1px" opacity="0.25"></line><line x1="0" y1="274.90909090909093" x2="1374.4375" y2="274.90909090909093" fill="rgb(0, 0, 0)" stroke="rgb(60, 60, 60)" stroke-width="1px" opacity="0.25"></line><line x1="0" y1="240.54545454545453" x2="1374.4375" y2="240.54545454545453" fill="rgb(0, 0, 0)" stroke="rgb(60, 60, 60)" stroke-width="1px" opacity="0.25"></line><line x1="0" y1="206.18181818181816" x2="1374.4375" y2="206.18181818181816" fill="rgb(0, 0, 0)" stroke="rgb(60, 60, 60)" stroke-width="1px" opacity="0.25"></line><line x1="0" y1="171.81818181818184" x2="1374.4375" y2="171.81818181818184" fill="rgb(0, 0, 0)" stroke="rgb(60, 60, 60)" stroke-width="1px" opacity="0.25"></line><line x1="0" y1="137.4545454545455" x2="1374.4375" y2="137.4545454545455" fill="rgb(0, 0, 0)" stroke="rgb(60, 60, 60)" stroke-width="1px" opacity="0.25"></line><line x1="0" y1="103.09090909090912" x2="1374.4375" y2="103.09090909090912" fill="rgb(0, 0, 0)" stroke="rgb(60, 60, 60)" stroke-width="1px" opacity="0.25"></line><line x1="0" y1="68.72727272727275" x2="1374.4375" y2="68.72727272727275" fill="rgb(0, 0, 0)" stroke="rgb(60, 60, 60)" stroke-width="1px" opacity="0.25"></line><line x1="0" y1="34.363636363636374" x2="1374.4375" y2="34.363636363636374" fill="rgb(0, 0, 0)" stroke="rgb(60, 60, 60)" stroke-width="1px" opacity="0.25"></line><line x1="0" y1="0" x2="1374.4375" y2="0" fill="rgb(0, 0, 0)" stroke="rgb(60, 60, 60)" stroke-width="1px" opacity="0.25"></line></g></g></g><g><g><line x1="0" y1="343.6363636363636" x2="1374.4375" y2="343.6363636363636" fill="rgb(0, 0, 0)" stroke="rgb(153, 153, 153)" stroke-width="1.5px"></line></g></g><g><g><line x1="114.53645833333333" y1="0" x2="114.53645833333333" y2="378" fill="rgb(0, 0, 0)" stroke="rgb(153, 153, 153)" stroke-width="1.5px"></line></g></g><g><g><g><g><g><path stroke="rgb(0, 119, 187)" stroke-width="2px" d="M114.53645833333333,320.40942683815956L137.44375,325.79380138969617L160.35104166666667,328.50300792870127L183.25833333333333,329.12801034134634L206.165625,331.12698892294924L229.07291666666666,330.74591027022L251.9802083333333,331.4722196813123L274.8875,332.4723422646405L297.7947916666667,332.4500477752397L320.70208333333335,332.0503217167566L343.609375,331.9186199217624L366.51666666666665,331.28372430562496L389.4239583333333,332.7286825888858L412.33125,332.15972379138844L435.23854166666666,330.78803134535286L458.1458333333333,331.73123693970297L481.05312499999997,330.8369118493689L503.9604166666666,331.4303587218946L526.8677083333333,333.21218833304636L549.775,330.7302017651949L572.6822916666667,332.05160489820395L595.5895833333334,330.67529736663107L618.496875,332.8105312810032L641.4041666666667,331.6990663580665L664.3114583333333,329.93677948275143L687.21875,329.98477962233335L710.1260416666668,332.19109976294317L733.0333333333333,330.67905395288625L755.9406250000001,330.5176576237925L778.8479166666666,330.86843705188284L801.7552083333334,331.37235729722556L824.6625,330.7296781921127L847.5697916666667,330.21695262737444L870.4770833333333,331.67412906790514L893.384375,331.3204280130296L916.2916666666666,330.9589069910253L939.1989583333334,331.350827894745L962.1062499999999,330.3504132906462L985.0135416666667,329.5878782491147L1007.9208333333332,331.72333661970123L1030.828125,330.39785706336056L1053.7354166666667,329.77608215688593L1076.6427083333333,329.632367225142L1099.55,330.3518350060977L1122.4572916666666,330.6276259629999L1145.3645833333335,331.78654209447615L1168.271875,331.64762848411544L1191.1791666666668,330.9508577415203L1214.0864583333332,331.29906192509276L1236.99375,331.8434939425974" style="fill: none;" fill="none"></path></g><g><path stroke="rgb(255, 112, 67)" stroke-width="2px" d="M114.53645833333333,325.3301014886661L137.44375,170.00718866682746L160.35104166666667,53.55612683080191L183.25833333333333,20.330929278311707L206.165625,54.99272128290541L229.07291666666666,74.62779681992072L251.9802083333333,69.83732824504011L274.8875,70.26435431405092L297.7947916666667,76.43947068945779L320.70208333333335,84.79579808443889L343.609375,86.94895217849178L366.51666666666665,87.67201619169708L389.4239583333333,92.29658450909119L412.33125,97.05741052090264L435.23854166666666,98.22069760225494L458.1458333333333,97.87305867280791L481.05312499999997,101.12553563187235L503.9604166666666,100.78107280001196L526.8677083333333,99.65671088362434L549.775,100.34092237070764L572.6822916666667,100.54503686361885L595.5895833333334,104.18098189238953L618.496875,103.88800937441687L641.4041666666667,103.70550639192129L664.3114583333333,107.42535794452813L687.21875,104.5232273206057L710.1260416666668,103.56330373044665L733.0333333333333,107.27105702050841L755.9406250000001,101.5488306695739L778.8479166666666,108.02821931708921L801.7552083333334,103.92255912334267L824.6625,107.70969371282841L847.5697916666667,110.6009000452289L870.4770833333333,112.1462671151949L893.384375,103.5114476446881L916.2916666666666,109.06052234589183L939.1989583333334,99.7011516664074L962.1062499999999,113.70884737454591L985.0135416666667,106.14956108475369L1007.9208333333332,100.88953881960849L1030.828125,103.6332650586077L1053.7354166666667,103.37800781261309L1076.6427083333333,107.6202138087646L1099.55,108.46463951381452L1122.4572916666666,114.9309828391614L1145.3645833333335,111.69069690381073L1168.271875,104.85783040447853L1191.1791666666668,107.14226650642289L1214.0864583333332,108.63571274659093L1236.99375,107.0166750163916" style="fill: none;" fill="none"></path></g></g></g></g><g opacity="0.2"><g><g><g><path stroke="rgb(0, 119, 187)" stroke-width="2px" d="M114.53645833333333,320.40942683815956L137.44375,326.3322388448498L160.35104166666667,328.8010206479918L183.25833333333333,329.19738560914993L206.165625,331.3490754433654L229.07291666666666,330.70356862111527L251.9802083333333,331.5529206462882L274.8875,332.58346698500895L297.7947916666667,332.4475706097755L320.70208333333335,332.00590771030295L343.609375,331.90398638898677L366.51666666666665,331.2131803482771L389.4239583333333,332.88923350924796L412.33125,332.0965061472221L435.23854166666666,330.63562107357114L458.1458333333333,331.8360375612974L481.05312499999997,330.7375423948873L503.9604166666666,331.49629726328635L526.8677083333333,333.4101694009521L549.775,330.45442547987807L572.6822916666667,332.1984274685383L595.5895833333334,330.5223743075674L618.496875,333.04777949371123L641.4041666666667,331.57557025551796L664.3114583333333,329.74096982993865L687.21875,329.9901129711758L710.1260416666668,332.43624644523317L733.0333333333333,330.51104886287993L755.9406250000001,330.4997246983376L778.8479166666666,330.90741254389286L801.7552083333334,331.428348435597L824.6625,330.65826940265566L847.5697916666667,330.1599831201813L870.4770833333333,331.8360375612974L893.384375,331.2811278958212L916.2916666666666,330.91873798858035L939.1989583333334,331.39437466182494L962.1062499999999,330.239256112413L985.0135416666667,329.50315213338894L1007.9208333333332,331.96060977198863L1030.828125,330.2505815571005L1053.7354166666667,329.7069960561666L1076.6427083333333,329.61639889939266L1099.55,330.4317758706483L1122.4572916666666,330.65826940265566L1145.3645833333335,331.9153105535291L1168.271875,331.6321936385198L1191.1791666666668,330.8734387701208L1214.0864583333332,331.3377512788231L1236.99375,331.90398638898677" style="fill: none;" fill="none"></path></g><g><path stroke="rgb(255, 112, 67)" stroke-width="2px" d="M114.53645833333333,325.3301014886661L137.44375,154.47489738464358L160.35104166666667,40.746510028839154L183.25833333333333,16.64293234998528L206.165625,58.84364637461579L229.07291666666666,76.80945006283852L251.9802083333333,69.3050544912165L274.8875,70.31180165030742L297.7947916666667,77.12559472430837L320.70208333333335,85.72427890517497L343.609375,87.18819152225149L366.51666666666665,87.75235663760793L389.4239583333333,92.81042543324563L412.33125,97.58639118888163L435.23854166666666,98.3499517224052L458.1458333333333,97.8344321250916L481.05312499999997,101.48692196065733L503.9604166666666,100.74279915202749L526.8677083333333,99.53178178180349L549.775,100.41694586927244L572.6822916666667,100.56771625172011L595.5895833333334,104.58497578447516L618.496875,103.85545687241992L641.4041666666667,103.6852282827551L664.3114583333333,107.83867478370671L687.21875,104.20076836239211L710.1260416666668,103.45664555376227L733.0333333333333,107.68302960829305L755.9406250000001,100.9130277416923L778.8479166666666,108.74815138903534L801.7552083333334,103.46637465737085L824.6625,108.1304864449935L847.5697916666667,110.92214519327338L870.4770833333333,112.31797456741337L893.384375,102.55202325907624L916.2916666666666,109.67708620158112L939.1989583333334,98.66122159090912L962.1062499999999,115.26525800878355L985.0135416666667,105.30964038588786L1007.9208333333332,100.30509190125903L1030.828125,103.93812352960761L1053.7354166666667,103.34964589639148L1076.6427083333333,108.09157003055923L1099.55,108.55846459215338L1122.4572916666666,115.6494654308666L1145.3645833333335,111.33066513321619L1168.271875,104.09862301566386L1191.1791666666668,107.39609273997223L1214.0864583333332,108.80165121772075L1236.99375,106.83678193525839" style="fill: none;" fill="none"></path></g></g></g></g></g></g><g transform="translate(51, 378)" clip-path="url(#clip_1)"><clipPath id="clip_1"><rect width="1374" height="22"></rect></clipPath><g><g><line x1="0" y1="0" x2="0" y2="5" style="visibility: inherit;" fill="rgb(0, 0, 0)" stroke="rgb(204, 204, 204)" stroke-width="1px"></line><line x1="114.53645833333333" y1="0" x2="114.53645833333333" y2="5" style="visibility: inherit;" fill="rgb(0, 0, 0)" stroke="rgb(204, 204, 204)" stroke-width="1px"></line><line x1="229.07291666666666" y1="0" x2="229.07291666666666" y2="5" style="visibility: inherit;" fill="rgb(0, 0, 0)" stroke="rgb(204, 204, 204)" stroke-width="1px"></line><line x1="343.609375" y1="0" x2="343.609375" y2="5" style="visibility: inherit;" fill="rgb(0, 0, 0)" stroke="rgb(204, 204, 204)" stroke-width="1px"></line><line x1="458.1458333333333" y1="0" x2="458.1458333333333" y2="5" style="visibility: inherit;" fill="rgb(0, 0, 0)" stroke="rgb(204, 204, 204)" stroke-width="1px"></line><line x1="572.6822916666667" y1="0" x2="572.6822916666667" y2="5" style="visibility: inherit;" fill="rgb(0, 0, 0)" stroke="rgb(204, 204, 204)" stroke-width="1px"></line><line x1="687.21875" y1="0" x2="687.21875" y2="5" style="visibility: inherit;" fill="rgb(0, 0, 0)" stroke="rgb(204, 204, 204)" stroke-width="1px"></line><line x1="801.7552083333334" y1="0" x2="801.7552083333334" y2="5" style="visibility: inherit;" fill="rgb(0, 0, 0)" stroke="rgb(204, 204, 204)" stroke-width="1px"></line><line x1="916.2916666666666" y1="0" x2="916.2916666666666" y2="5" style="visibility: inherit;" fill="rgb(0, 0, 0)" stroke="rgb(204, 204, 204)" stroke-width="1px"></line><line x1="1030.828125" y1="0" x2="1030.828125" y2="5" style="visibility: inherit;" fill="rgb(0, 0, 0)" stroke="rgb(204, 204, 204)" stroke-width="1px"></line><line x1="1145.3645833333335" y1="0" x2="1145.3645833333335" y2="5" style="visibility: inherit;" fill="rgb(0, 0, 0)" stroke="rgb(204, 204, 204)" stroke-width="1px"></line><line x1="1259.9010416666665" y1="0" x2="1259.9010416666665" y2="5" style="visibility: inherit;" fill="rgb(0, 0, 0)" stroke="rgb(204, 204, 204)" stroke-width="1px"></line><line x1="1374.4375" y1="0" x2="1374.4375" y2="5" style="visibility: inherit;" fill="rgb(0, 0, 0)" stroke="rgb(204, 204, 204)" stroke-width="1px"></line></g><g transform="translate(0, 8)"><text x="0" y="0" dx="0em" dy="0.95em" style="text-anchor: middle; visibility: hidden; font-family: Roboto, sans-serif; font-size: 12px; font-weight: 200;" fill="rgb(50, 49, 63)" stroke="none" stroke-width="1px">-5</text><text x="114.53645833333333" y="0" dx="0em" dy="0.95em" style="text-anchor: middle; visibility: inherit; font-family: Roboto, sans-serif; font-size: 12px; font-weight: 200;" fill="rgb(50, 49, 63)" stroke="none" stroke-width="1px">0</text><text x="229.07291666666666" y="0" dx="0em" dy="0.95em" style="text-anchor: middle; visibility: inherit; font-family: Roboto, sans-serif; font-size: 12px; font-weight: 200;" fill="rgb(50, 49, 63)" stroke="none" stroke-width="1px">5</text><text x="343.609375" y="0" dx="0em" dy="0.95em" style="text-anchor: middle; visibility: inherit; font-family: Roboto, sans-serif; font-size: 12px; font-weight: 200;" fill="rgb(50, 49, 63)" stroke="none" stroke-width="1px">10</text><text x="458.1458333333333" y="0" dx="0em" dy="0.95em" style="text-anchor: middle; visibility: inherit; font-family: Roboto, sans-serif; font-size: 12px; font-weight: 200;" fill="rgb(50, 49, 63)" stroke="none" stroke-width="1px">15</text><text x="572.6822916666667" y="0" dx="0em" dy="0.95em" style="text-anchor: middle; visibility: inherit; font-family: Roboto, sans-serif; font-size: 12px; font-weight: 200;" fill="rgb(50, 49, 63)" stroke="none" stroke-width="1px">20</text><text x="687.21875" y="0" dx="0em" dy="0.95em" style="text-anchor: middle; visibility: inherit; font-family: Roboto, sans-serif; font-size: 12px; font-weight: 200;" fill="rgb(50, 49, 63)" stroke="none" stroke-width="1px">25</text><text x="801.7552083333334" y="0" dx="0em" dy="0.95em" style="text-anchor: middle; visibility: inherit; font-family: Roboto, sans-serif; font-size: 12px; font-weight: 200;" fill="rgb(50, 49, 63)" stroke="none" stroke-width="1px">30</text><text x="916.2916666666666" y="0" dx="0em" dy="0.95em" style="text-anchor: middle; visibility: inherit; font-family: Roboto, sans-serif; font-size: 12px; font-weight: 200;" fill="rgb(50, 49, 63)" stroke="none" stroke-width="1px">35</text><text x="1030.828125" y="0" dx="0em" dy="0.95em" style="text-anchor: middle; visibility: inherit; font-family: Roboto, sans-serif; font-size: 12px; font-weight: 200;" fill="rgb(50, 49, 63)" stroke="none" stroke-width="1px">40</text><text x="1145.3645833333335" y="0" dx="0em" dy="0.95em" style="text-anchor: middle; visibility: inherit; font-family: Roboto, sans-serif; font-size: 12px; font-weight: 200;" fill="rgb(50, 49, 63)" stroke="none" stroke-width="1px">45</text><text x="1259.9010416666665" y="0" dx="0em" dy="0.95em" style="text-anchor: middle; visibility: inherit; font-family: Roboto, sans-serif; font-size: 12px; font-weight: 200;" fill="rgb(50, 49, 63)" stroke="none" stroke-width="1px">50</text><text x="1374.4375" y="0" dx="0em" dy="0.95em" style="text-anchor: middle; visibility: hidden; font-family: Roboto, sans-serif; font-size: 12px; font-weight: 200;" fill="rgb(50, 49, 63)" stroke="none" stroke-width="1px">55</text></g><line x1="0" y1="0" x2="1374.4375" y2="0" fill="rgb(0, 0, 0)" stroke="rgb(204, 204, 204)" stroke-width="1px"></line></g></g></g></g></svg>