<svg viewBox="0 0 1426 400" xmlns="http://www.w3.org/2000/svg"><g><g><g><g><g><line x1="72.34375" y1="378" x2="67.34375" y2="378" style="visibility: inherit;" fill="rgb(0, 0, 0)" stroke="rgb(204, 204, 204)" stroke-width="1px"></line><line x1="72.34375" y1="324" x2="67.34375" y2="324" style="visibility: inherit;" fill="rgb(0, 0, 0)" stroke="rgb(204, 204, 204)" stroke-width="1px"></line><line x1="72.34375" y1="270" x2="67.34375" y2="270" style="visibility: inherit;" fill="rgb(0, 0, 0)" stroke="rgb(204, 204, 204)" stroke-width="1px"></line><line x1="72.34375" y1="216" x2="67.34375" y2="216" style="visibility: inherit;" fill="rgb(0, 0, 0)" stroke="rgb(204, 204, 204)" stroke-width="1px"></line><line x1="72.34375" y1="162" x2="67.34375" y2="162" style="visibility: inherit;" fill="rgb(0, 0, 0)" stroke="rgb(204, 204, 204)" stroke-width="1px"></line><line x1="72.34375" y1="108" x2="67.34375" y2="108" style="visibility: inherit;" fill="rgb(0, 0, 0)" stroke="rgb(204, 204, 204)" stroke-width="1px"></line><line x1="72.34375" y1="54.00000000000002" x2="67.34375" y2="54.00000000000002" style="visibility: inherit;" fill="rgb(0, 0, 0)" stroke="rgb(204, 204, 204)" stroke-width="1px"></line><line x1="72.34375" y1="0" x2="67.34375" y2="0" style="visibility: inherit;" fill="rgb(0, 0, 0)" stroke="rgb(204, 204, 204)" stroke-width="1px"></line></g><g transform="translate(62.34375, 0)"><text x="0" y="378" dx="0em" dy="0.3em" style="text-anchor: end; visibility: hidden; font-family: Roboto, sans-serif; font-size: 12px; font-weight: 200;" fill="rgb(50, 49, 63)" stroke="none" stroke-width="1px">-500</text><text x="0" y="324" dx="0em" dy="0.3em" style="text-anchor: end; visibility: inherit; font-family: Roboto, sans-serif; font-size: 12px; font-weight: 200;" fill="rgb(50, 49, 63)" stroke="none" stroke-width="1px">0</text><text x="0" y="270" dx="0em" dy="0.3em" style="text-anchor: end; visibility: inherit; font-family: Roboto, sans-serif; font-size: 12px; font-weight: 200;" fill="rgb(50, 49, 63)" stroke="none" stroke-width="1px">500</text><text x="0" y="216" dx="0em" dy="0.3em" style="text-anchor: end; visibility: inherit; font-family: Roboto, sans-serif; font-size: 12px; font-weight: 200;" fill="rgb(50, 49, 63)" stroke="none" stroke-width="1px">1e+3</text><text x="0" y="162" dx="0em" dy="0.3em" style="text-anchor: end; visibility: inherit; font-family: Roboto, sans-serif; font-size: 12px; font-weight: 200;" fill="rgb(50, 49, 63)" stroke="none" stroke-width="1px">1.5e+3</text><text x="0" y="108" dx="0em" dy="0.3em" style="text-anchor: end; visibility: inherit; font-family: Roboto, sans-serif; font-size: 12px; font-weight: 200;" fill="rgb(50, 49, 63)" stroke="none" stroke-width="1px">2e+3</text><text x="0" y="54.00000000000002" dx="0em" dy="0.3em" style="text-anchor: end; visibility: inherit; font-family: Roboto, sans-serif; font-size: 12px; font-weight: 200;" fill="rgb(50, 49, 63)" stroke="none" stroke-width="1px">2.5e+3</text><text x="0" y="0" dx="0em" dy="0.3em" style="text-anchor: end; visibility: hidden; font-family: Roboto, sans-serif; font-size: 12px; font-weight: 200;" fill="rgb(50, 49, 63)" stroke="none" stroke-width="1px">3e+3</text></g><line x1="72.34375" y1="0" x2="72.34375" y2="378" fill="rgb(0, 0, 0)" stroke="rgb(204, 204, 204)" stroke-width="1px"></line></g></g><g transform="translate(72, 0)" clip-path="url(#clip_0)"><clipPath id="clip_0"><rect width="1353" height="378"></rect></clipPath><g><g><g><line x1="0" y1="0" x2="0" y2="378" fill="rgb(0, 0, 0)" stroke="rgb(60, 60, 60)" stroke-width="1px" opacity="0.25"></line><line x1="112.8046875" y1="0" x2="112.8046875" y2="378" fill="rgb(0, 0, 0)" stroke="rgb(60, 60, 60)" stroke-width="1px" opacity="0.25"></line><line x1="225.609375" y1="0" x2="225.609375" y2="378" fill="rgb(0, 0, 0)" stroke="rgb(60, 60, 60)" stroke-width="1px" opacity="0.25"></line><line x1="338.4140625" y1="0" x2="338.4140625" y2="378" fill="rgb(0, 0, 0)" stroke="rgb(60, 60, 60)" stroke-width="1px" opacity="0.25"></line><line x1="451.21875" y1="0" x2="451.21875" y2="378" fill="rgb(0, 0, 0)" stroke="rgb(60, 60, 60)" stroke-width="1px" opacity="0.25"></line><line x1="564.0234375" y1="0" x2="564.0234375" y2="378" fill="rgb(0, 0, 0)" stroke="rgb(60, 60, 60)" stroke-width="1px" opacity="0.25"></line><line x1="676.828125" y1="0" x2="676.828125" y2="378" fill="rgb(0, 0, 0)" stroke="rgb(60, 60, 60)" stroke-width="1px" opacity="0.25"></line><line x1="789.6328125" y1="0" x2="789.6328125" y2="378" fill="rgb(0, 0, 0)" stroke="rgb(60, 60, 60)" stroke-width="1px" opacity="0.25"></line><line x1="902.4375" y1="0" x2="902.4375" y2="378" fill="rgb(0, 0, 0)" stroke="rgb(60, 60, 60)" stroke-width="1px" opacity="0.25"></line><line x1="1015.2421875" y1="0" x2="1015.2421875" y2="378" fill="rgb(0, 0, 0)" stroke="rgb(60, 60, 60)" stroke-width="1px" opacity="0.25"></line><line x1="1128.046875" y1="0" x2="1128.046875" y2="378" fill="rgb(0, 0, 0)" stroke="rgb(60, 60, 60)" stroke-width="1px" opacity="0.25"></line><line x1="1240.8515625" y1="0" x2="1240.8515625" y2="378" fill="rgb(0, 0, 0)" stroke="rgb(60, 60, 60)" stroke-width="1px" opacity="0.25"></line><line x1="1353.65625" y1="0" x2="1353.65625" y2="378" fill="rgb(0, 0, 0)" stroke="rgb(60, 60, 60)" stroke-width="1px" opacity="0.25"></line></g><g><line x1="0" y1="378" x2="1353.65625" y2="378" fill="rgb(0, 0, 0)" stroke="rgb(60, 60, 60)" stroke-width="1px" opacity="0.25"></line><line x1="0" y1="324" x2="1353.65625" y2="324" fill="rgb(0, 0, 0)" stroke="rgb(60, 60, 60)" stroke-width="1px" opacity="0.25"></line><line x1="0" y1="270" x2="1353.65625" y2="270" fill="rgb(0, 0, 0)" stroke="rgb(60, 60, 60)" stroke-width="1px" opacity="0.25"></line><line x1="0" y1="216" x2="1353.65625" y2="216" fill="rgb(0, 0, 0)" stroke="rgb(60, 60, 60)" stroke-width="1px" opacity="0.25"></line><line x1="0" y1="162" x2="1353.65625" y2="162" fill="rgb(0, 0, 0)" stroke="rgb(60, 60, 60)" stroke-width="1px" opacity="0.25"></line><line x1="0" y1="108" x2="1353.65625" y2="108" fill="rgb(0, 0, 0)" stroke="rgb(60, 60, 60)" stroke-width="1px" opacity="0.25"></line><line x1="0" y1="54.00000000000002" x2="1353.65625" y2="54.00000000000002" fill="rgb(0, 0, 0)" stroke="rgb(60, 60, 60)" stroke-width="1px" opacity="0.25"></line><line x1="0" y1="0" x2="1353.65625" y2="0" fill="rgb(0, 0, 0)" stroke="rgb(60, 60, 60)" stroke-width="1px" opacity="0.25"></line></g></g></g><g><g><line x1="0" y1="324" x2="1353.65625" y2="324" fill="rgb(0, 0, 0)" stroke="rgb(153, 153, 153)" stroke-width="1.5px"></line></g></g><g><g><line x1="112.8046875" y1="0" x2="112.8046875" y2="378" fill="rgb(0, 0, 0)" stroke="rgb(153, 153, 153)" stroke-width="1.5px"></line></g></g><g><g><g><g><g><path stroke="rgb(0, 119, 187)" stroke-width="2px" d="M112.8046875,323.51343974876403L135.365625,323.42477956581115L157.9265625,323.31380665614154L180.4875,323.12274194320656L203.0484375,322.87687152428225L225.609375,322.6746982001786L248.1703125,322.21193698107817L270.73125,321.51658437566357L293.2921875,320.7750537859459L315.853125,319.6547678555944L338.4140625,318.7178366518831L360.975,316.9939063061778L383.5359375,314.7822309901146L406.096875,312.8879245119753L428.6578125,310.7806989758557L451.21875,306.08287997448986L473.77968749999997,303.963164559949L496.340625,299.35924685150275L518.9015625000001,294.8149837915956L541.4625,290.98402621119084L564.0234375,283.6595785000253L586.584375,283.2953356820338L609.1453125,275.92819881478545L631.70625,272.873205208627L654.2671875,266.7569030892221L676.828125,257.2539645765004L699.3890625,246.5223986549156L721.95,242.7441169406869L744.5109375000001,227.4581260495374L767.071875,226.05025572018815L789.6328125,218.26342266674536L812.19375,219.3167256162839L834.7546875,190.34074614561277L857.315625,197.17595078643626L879.8765625,197.45613633840924L902.4375,180.87165211040346L924.9984375,176.7860750743216L947.5593749999999,154.06044720469777L970.1203125,153.6908307067979L992.68125,147.0877432757579L1015.2421875,103.82662755023202L1037.8031250000001,129.80275836049194L1060.3640625,113.45035816026792L1082.925,92.2460006597768L1105.4859375,67.47872428472768L1128.046875,84.810554557379L1150.6078125,88.71201424480039L1173.16875,68.49853667838632L1195.7296875,20.440957574088618L1218.290625,70.96627593319008" style="fill: none;" fill="none"></path></g><g><path stroke="rgb(255, 112, 67)" stroke-width="2px" d="M112.8046875,323.3939939174652L135.365625,323.7502439629815L157.9265625,323.9175409643585L180.4875,323.970155930874L203.0484375,323.9350553763449L225.609375,323.90408315620795L248.1703125,323.8994782340789L270.73125,323.87434987346103L293.2921875,323.81283518984503L315.853125,323.7034626017487L338.4140625,323.57629162989406L360.975,323.4267372341257L383.5359375,323.1551464155207L406.096875,322.83663502042776L428.6578125,322.4268727362805L451.21875,321.9655382288282L473.77968749999997,321.24012455957717L496.340625,320.4140488542732L518.9015625000001,319.8680693980616L541.4625,319.189440585436L564.0234375,318.028861922008L586.584375,317.6588127699596L609.1453125,315.8547155329774L631.70625,314.6623911608417L654.2671875,313.44125887926776L676.828125,311.80169637742875L699.3890625,310.2930931606921L721.95,309.50601748867666L744.5109375000001,309.9431910310942L767.071875,305.0822491263028L789.6328125,308.34713817556974L812.19375,302.17966268840655L834.7546875,298.5360894011649L857.315625,296.9270422897259L879.8765625,299.52577010421675L902.4375,295.9989823693084L924.9984375,299.2274819832687L947.5593749999999,278.9619359546745L970.1203125,293.28131977954945L992.68125,296.3387270463143L1015.2421875,290.9248196772877L1037.8031250000001,285.88059919184985L1060.3640625,283.1406631662553L1082.925,276.67340284006303L1105.4859375,271.54466461261956L1128.046875,275.33645925911355L1150.6078125,284.30484035950514L1173.16875,278.5826841702279L1195.7296875,272.6351881191712L1218.290625,272.48781124355776" style="fill: none;" fill="none"></path></g></g></g></g><g opacity="0.2"><g><g><g><path stroke="rgb(0, 119, 187)" stroke-width="2px" d="M112.8046875,323.51343974876403L135.365625,323.41591354751586L157.9265625,323.30159963607787L180.4875,323.1015337600708L203.0484375,322.84955532073974L225.609375,322.65223472213745L248.1703125,322.16051911926274L270.73125,321.4393229827881L293.2921875,320.6926614990234L315.853125,319.53029164123535L338.4140625,318.61373318481446L360.975,316.80235848999024L383.5359375,314.5364892883301L406.096875,312.67744601440427L428.6578125,310.5465628051758L451.21875,305.56090008544925L473.77968749999997,303.72764062500005L496.340625,298.84770043945315L518.9015625000001,294.31006567382815L541.4625,290.5583642578125L564.0234375,282.8457509765625L586.584375,283.25486425781247L609.1453125,275.1096280517578L631.70625,272.5337614746094L654.2671875,266.07731396484377L676.828125,256.1980825195313L699.3890625,245.33000244140624L721.95,242.32430786132812L744.5109375000001,225.7596826171875L767.071875,225.89382568359378L789.6328125,217.39821899414062L812.19375,219.43375927734374L834.7546875,187.12119287109377L857.315625,197.93541796875002L879.8765625,197.48726806640624L902.4375,179.02893164062502L924.9984375,176.3321220703125L947.5593749999999,151.53537744140624L970.1203125,153.64976220703124L992.68125,146.35406689453123L1015.2421875,99.01983691406251L1037.8031250000001,132.6889951171875L1060.3640625,111.63342480468751L1082.925,89.88996093750002L1105.4859375,64.72680468749998L1128.046875,86.73631347656251L1150.6078125,89.145509765625L1173.16875,66.2525947265625L1195.7296875,15.10122656250002L1218.290625,76.58020019531249" style="fill: none;" fill="none"></path></g><g><path stroke="rgb(255, 112, 67)" stroke-width="2px" d="M112.8046875,323.3939939174652L135.365625,323.78586896753313L157.9265625,323.93594363451007L180.4875,323.97599619215725L203.0484375,323.93115570473674L225.609375,323.9006418328285L248.1703125,323.89896657657624L270.73125,323.87155783367155L293.2921875,323.8060002250671L315.853125,323.69131009197235L338.4140625,323.5621615219116L360.975,323.41012007904055L383.5359375,323.12496965789796L406.096875,322.80124486541746L428.6578125,322.3813435935974L451.21875,321.9142788391113L473.77968749999997,321.1595230407715L496.340625,320.32226266479495L518.9015625000001,319.8074050140381L541.4625,319.1140373840332L564.0234375,317.89990873718267L586.584375,317.61769619750976L609.1453125,315.65426028442386L631.70625,314.5299106750488L654.2671875,313.30557751464846L676.828125,311.6195227661133L699.3890625,310.1254705810547L721.95,309.4185646362305L744.5109375000001,309.99176586914064L767.071875,304.54214447021485L789.6328125,308.7099036254883L812.19375,301.49438763427736L834.7546875,298.1312479248047L857.315625,296.7482592773438L879.8765625,299.81451763916016L902.4375,295.6071170654297L924.9984375,299.58620416259765L947.5593749999999,276.7102086181641L970.1203125,294.87236242675783L992.68125,296.67843896484374L1015.2421875,290.3232744140625L1037.8031250000001,285.32013024902346L1060.3640625,282.83622583007815L1082.925,275.954818359375L1105.4859375,270.97480480957034L1128.046875,275.75776977539067L1150.6078125,285.3013271484375L1173.16875,277.94688903808594L1195.7296875,271.9743552246094L1218.290625,272.4714360351563" style="fill: none;" fill="none"></path></g></g></g></g></g></g><g transform="translate(72, 378)" clip-path="url(#clip_1)"><clipPath id="clip_1"><rect width="1353" height="22"></rect></clipPath><g><g><line x1="0" y1="0" x2="0" y2="5" style="visibility: inherit;" fill="rgb(0, 0, 0)" stroke="rgb(204, 204, 204)" stroke-width="1px"></line><line x1="112.8046875" y1="0" x2="112.8046875" y2="5" style="visibility: inherit;" fill="rgb(0, 0, 0)" stroke="rgb(204, 204, 204)" stroke-width="1px"></line><line x1="225.609375" y1="0" x2="225.609375" y2="5" style="visibility: inherit;" fill="rgb(0, 0, 0)" stroke="rgb(204, 204, 204)" stroke-width="1px"></line><line x1="338.4140625" y1="0" x2="338.4140625" y2="5" style="visibility: inherit;" fill="rgb(0, 0, 0)" stroke="rgb(204, 204, 204)" stroke-width="1px"></line><line x1="451.21875" y1="0" x2="451.21875" y2="5" style="visibility: inherit;" fill="rgb(0, 0, 0)" stroke="rgb(204, 204, 204)" stroke-width="1px"></line><line x1="564.0234375" y1="0" x2="564.0234375" y2="5" style="visibility: inherit;" fill="rgb(0, 0, 0)" stroke="rgb(204, 204, 204)" stroke-width="1px"></line><line x1="676.828125" y1="0" x2="676.828125" y2="5" style="visibility: inherit;" fill="rgb(0, 0, 0)" stroke="rgb(204, 204, 204)" stroke-width="1px"></line><line x1="789.6328125" y1="0" x2="789.6328125" y2="5" style="visibility: inherit;" fill="rgb(0, 0, 0)" stroke="rgb(204, 204, 204)" stroke-width="1px"></line><line x1="902.4375" y1="0" x2="902.4375" y2="5" style="visibility: inherit;" fill="rgb(0, 0, 0)" stroke="rgb(204, 204, 204)" stroke-width="1px"></line><line x1="1015.2421875" y1="0" x2="1015.2421875" y2="5" style="visibility: inherit;" fill="rgb(0, 0, 0)" stroke="rgb(204, 204, 204)" stroke-width="1px"></line><line x1="1128.046875" y1="0" x2="1128.046875" y2="5" style="visibility: inherit;" fill="rgb(0, 0, 0)" stroke="rgb(204, 204, 204)" stroke-width="1px"></line><line x1="1240.8515625" y1="0" x2="1240.8515625" y2="5" style="visibility: inherit;" fill="rgb(0, 0, 0)" stroke="rgb(204, 204, 204)" stroke-width="1px"></line><line x1="1353.65625" y1="0" x2="1353.65625" y2="5" style="visibility: inherit;" fill="rgb(0, 0, 0)" stroke="rgb(204, 204, 204)" stroke-width="1px"></line></g><g transform="translate(0, 8)"><text x="0" y="0" dx="0em" dy="0.95em" style="text-anchor: middle; visibility: hidden; font-family: Roboto, sans-serif; font-size: 12px; font-weight: 200;" fill="rgb(50, 49, 63)" stroke="none" stroke-width="1px">-5</text><text x="112.8046875" y="0" dx="0em" dy="0.95em" style="text-anchor: middle; visibility: inherit; font-family: Roboto, sans-serif; font-size: 12px; font-weight: 200;" fill="rgb(50, 49, 63)" stroke="none" stroke-width="1px">0</text><text x="225.609375" y="0" dx="0em" dy="0.95em" style="text-anchor: middle; visibility: inherit; font-family: Roboto, sans-serif; font-size: 12px; font-weight: 200;" fill="rgb(50, 49, 63)" stroke="none" stroke-width="1px">5</text><text x="338.4140625" y="0" dx="0em" dy="0.95em" style="text-anchor: middle; visibility: inherit; font-family: Roboto, sans-serif; font-size: 12px; font-weight: 200;" fill="rgb(50, 49, 63)" stroke="none" stroke-width="1px">10</text><text x="451.21875" y="0" dx="0em" dy="0.95em" style="text-anchor: middle; visibility: inherit; font-family: Roboto, sans-serif; font-size: 12px; font-weight: 200;" fill="rgb(50, 49, 63)" stroke="none" stroke-width="1px">15</text><text x="564.0234375" y="0" dx="0em" dy="0.95em" style="text-anchor: middle; visibility: inherit; font-family: Roboto, sans-serif; font-size: 12px; font-weight: 200;" fill="rgb(50, 49, 63)" stroke="none" stroke-width="1px">20</text><text x="676.828125" y="0" dx="0em" dy="0.95em" style="text-anchor: middle; visibility: inherit; font-family: Roboto, sans-serif; font-size: 12px; font-weight: 200;" fill="rgb(50, 49, 63)" stroke="none" stroke-width="1px">25</text><text x="789.6328125" y="0" dx="0em" dy="0.95em" style="text-anchor: middle; visibility: inherit; font-family: Roboto, sans-serif; font-size: 12px; font-weight: 200;" fill="rgb(50, 49, 63)" stroke="none" stroke-width="1px">30</text><text x="902.4375" y="0" dx="0em" dy="0.95em" style="text-anchor: middle; visibility: inherit; font-family: Roboto, sans-serif; font-size: 12px; font-weight: 200;" fill="rgb(50, 49, 63)" stroke="none" stroke-width="1px">35</text><text x="1015.2421875" y="0" dx="0em" dy="0.95em" style="text-anchor: middle; visibility: inherit; font-family: Roboto, sans-serif; font-size: 12px; font-weight: 200;" fill="rgb(50, 49, 63)" stroke="none" stroke-width="1px">40</text><text x="1128.046875" y="0" dx="0em" dy="0.95em" style="text-anchor: middle; visibility: inherit; font-family: Roboto, sans-serif; font-size: 12px; font-weight: 200;" fill="rgb(50, 49, 63)" stroke="none" stroke-width="1px">45</text><text x="1240.8515625" y="0" dx="0em" dy="0.95em" style="text-anchor: middle; visibility: inherit; font-family: Roboto, sans-serif; font-size: 12px; font-weight: 200;" fill="rgb(50, 49, 63)" stroke="none" stroke-width="1px">50</text><text x="1353.65625" y="0" dx="0em" dy="0.95em" style="text-anchor: middle; visibility: hidden; font-family: Roboto, sans-serif; font-size: 12px; font-weight: 200;" fill="rgb(50, 49, 63)" stroke="none" stroke-width="1px">55</text></g><line x1="0" y1="0" x2="1353.65625" y2="0" fill="rgb(0, 0, 0)" stroke="rgb(204, 204, 204)" stroke-width="1px"></line></g></g></g></g></svg>